<svg width="1119" height="429" viewBox="0 0 1119 429" fill="none" xmlns="http://www.w3.org/2000/svg">
<g clip-path="url(#clip0_74_228)">
<path d="M319.17 197.87C319.08 197.98 318.71 198.11 318.52 198.23C318.19 198.37 317.89 198.61 317.86 198.5C317.7 197.72 318.67 196.57 319.16 197.82V197.88L319.17 197.87Z" fill="white"/>
<path d="M703.48 3.22999C704.56 3.89999 705.31 4.81999 706.25 5.68999C707.41 6.89999 708.27 8.39999 710.03 8.35999C712.89 8.32999 716 8.56999 718.85 8.94999C720.65 9.28999 722.34 8.57999 723.98 7.93999C726.59 7.23999 727.26 4.19999 729.63 3.13999C732.89 2.07999 737.19 1.58999 739.73 4.51999C740.73 5.65999 740.92 7.07999 741.06 8.49999C741.52 11.55 739.96 14.31 738.28 16.67C737.72 17.67 737.07 18.58 736.4 19.5C735.83 20.29 735.17 21.24 734.3 21.78C733.53 22.28 732.59 22.3 731.72 22.43C730.35 22.56 729.01 23.46 727.56 23.59C725.23 23.85 723.15 22.29 720.82 22.43C719.19 22.46 717.73 23.13 716.21 23.53C714.26 23.84 712.48 22.82 710.63 22.5C710.18 22.41 709.82 22.27 709.41 22.22C707.92 22.12 706.47 22.14 704.99 22.08C703.76 22.04 702.33 22.52 701.1 22.54C698.87 22.37 696.31 21.9 694.07 22.04C692.22 21.94 689.57 22.07 688.27 23.4C687.81 24.17 688.43 25 688.75 25.81C689.66 28.34 690.98 30.84 690.52 33.53C690.46 35.21 690.72 36.9 691.61 38.34C692.82 40.22 693.86 42.28 693.94 44.55C694 46.42 693.55 48.16 692.97 49.86C692.6 51.08 691.31 53.43 692.48 54.36C693.32 54.64 694.21 53.86 695.15 53.7C698.25 53.25 701.14 52.21 704.2 51.95C705.16 51.8 706.1 51.59 707.07 51.51C709.8 51.31 711.97 52.55 714.23 53.85C715.76 55.03 717.36 55.63 719.31 55.51C721.03 55.53 722.61 56.16 724.19 57.14C725.04 57.69 725.96 58.32 726.3 59.3C726.81 61.01 726.86 63.16 725.24 64.31C723.5 65.71 721.43 66.68 719.23 66.69C718.3 66.71 717.35 66.73 716.48 67.05C713.67 68.48 711.28 70.64 707.96 70.8C704.1 70.78 700.52 69.49 696.7 68.87C696.16 68.78 695.61 68.69 695.09 68.55C694.09 68.37 692.98 67.45 692.26 68.27C691.93 68.72 692.1 69.84 692.33 70.51C693.65 73.98 694.99 77.8 693.31 81.4C692.7 83.18 691.39 84.52 690.9 86.33C690.52 87.67 690.8 89.14 690.82 90.52C690.85 92.09 690.16 93.44 689.65 94.95C689.16 96.46 688.57 97.89 687.55 99.06C686.8 99.97 685.75 100.8 685.48 101.97C685.13 103.62 686.34 105.68 685.92 107.37C685.3 109.6 684.06 112.54 681.61 112.95C679.75 113.25 677.54 113.13 676.12 111.75C675.25 110.9 674.36 110.35 673.8 109.3C673.56 108.73 673.43 108.07 673.35 107.41C672.91 103.65 673.16 99.29 672.47 95.7C671.96 92.8 670.01 90.04 670.21 87.03C670.61 84.27 670.53 81.5 670.89 78.81C671.11 77.49 671.6 76.28 671.85 74.97C672.07 73.88 672.08 72.48 672.23 71.42C672.49 69.93 671.79 68.67 670.92 67.53C670.31 66.54 669.76 65.61 668.83 64.97C667.27 64.01 666.14 63.39 666.33 61.28C666.37 60.54 666.49 59.78 666.92 59.16C667.3 58.62 667.94 58.27 668.5 57.92C670.1 57 670.68 55.3 671.68 53.88C672.38 52.83 672.27 51.58 672.13 50.35C672.13 48.11 671.26 46.03 670.89 43.89C670.6 41.84 670.67 39.82 670.36 37.64C670.24 36.69 670.1 35.76 670.18 34.81C670.42 32.64 671.12 30.72 671.95 28.61C672.5 27.18 673.58 25.91 673.76 24.39C673.93 22.34 673.72 19.82 673.84 17.64C673.9 15.74 673.98 13.76 675.26 12.25C676.11 11.25 677.2 10.48 678.17 9.57999C679.59 7.71999 681.42 6.38999 683.78 5.94999C685.45 5.47999 687.2 5.83999 688.8 5.11999C689.96 4.62999 690.7 3.54999 691.44 2.57999C692.52 1.09999 694.46 0.289988 696.27 0.679988C697.61 0.929988 698.57 2.14999 699.72 2.44999C700.92 2.79999 702.33 2.49999 703.43 3.21999L703.5 3.25999L703.48 3.22999ZM673.48 96.4C673.33 96.5 673.3 96.98 673.33 97.23C673.51 98.71 673.72 100.22 673.83 101.69C673.92 102.69 673.67 103.96 674.19 104.82C674.31 104.24 673.96 101.5 673.93 100.32C673.78 99.15 673.84 97.15 673.56 96.4C673.55 96.4 673.52 96.4 673.51 96.4H673.48Z" fill="white"/>
<path d="M792.16 28.5099C792.53 27.8799 793.14 27.2799 793.62 26.7499C795.29 25.2199 796.12 23.8599 795.82 21.5399C795.79 20.3299 796.64 19.6799 797.26 18.6999C798.02 17.5899 798.69 15.9699 799.8 15.3699C801.58 14.4799 803.11 15.3699 804.4 13.2799C805.35 11.8099 806.4 9.90991 808.41 9.96991C810.09 9.88991 811.67 10.9699 812.91 10.1999C814.21 9.32991 815.41 8.35991 816.46 7.15991C817.91 5.02991 819.47 2.89991 821.79 1.65991C827.54 -1.72009 831.13 0.799912 836.5 2.99991C838.7 3.77991 841.08 4.08991 843.22 5.01991L843.31 5.05991C845.17 5.86991 847.15 6.74991 848.39 8.43991C849.84 10.5599 851.61 13.2799 851.26 15.8799C850.78 18.0299 848.72 19.1799 846.73 19.6799C845.07 20.2299 843.35 21.3599 841.47 21.4199C839.73 21.5599 838.03 21.0299 836.43 20.3899C834.35 19.5099 833.06 18.0699 830.76 19.2999C829.61 19.8699 827.93 19.9999 827.17 20.8299C826.62 21.3399 826.18 22.6099 825.33 21.6899C822.48 18.0999 820.04 21.6299 816.41 20.4199C815.1 20.0099 813.34 19.4899 812.56 20.9499C812.31 21.3499 811.86 22.1899 812.44 22.4499C812.92 22.6599 814.13 21.9599 814.42 22.1899C814.47 22.2899 814.39 22.3599 814.32 22.4599C813.64 23.2299 812.45 23.8199 811.9 24.7599C811.15 25.9099 811.63 27.3299 811.45 28.6299C810.86 31.2899 809.43 34.1299 807.79 36.2499C806.8 37.4299 804.89 37.8899 803.93 39.0599C803.09 40.1299 803.08 41.5099 802.55 42.7299C801.93 44.4399 801.09 45.9799 800.65 47.7699C800.18 49.6899 800.5 51.6999 799.96 53.5999C799.33 55.5999 798.74 57.4399 799 59.5299C799.15 61.1799 799.95 62.6599 800.03 64.4299C800.13 65.7199 800.03 67.0599 800.3 68.3199C800.83 70.8199 802.08 73.1099 802.65 75.6399C803.12 78.5799 805.36 78.6599 807.13 80.5799C808.9 82.6499 809.99 85.2699 810.77 87.8599C811.13 89.3299 810.4 90.7699 811.28 92.0699C813.3 94.4199 816.58 96.4799 819.58 96.7499C820.69 96.7399 821.94 96.8099 822.98 96.5199C823.86 96.2499 824.38 95.5699 825.04 95.3199C825.63 95.0299 826.29 95.5799 827.09 95.3199C828.53 94.5699 830.22 93.9099 831.59 93.2799C833.05 92.1799 834.63 91.2699 835.94 90.0399C836.37 89.6699 836.86 88.9099 837.39 88.7599C837.94 88.7299 838.22 88.2399 838.36 87.7499C838.47 87.3099 838.54 87.1199 839 86.7499C840.79 85.3399 841.7 83.4599 842.04 81.1699C842.33 78.9699 845.16 78.0599 841.71 77.0599C840.26 76.6699 840.6 75.6999 841.26 74.7199C842.34 73.1499 843.37 71.4399 843.64 69.5599C844.1 66.7399 841.84 66.0599 839.59 67.0099C837.18 67.8799 834.63 68.0699 832.11 67.3799C829.22 66.7399 826.68 66.0499 824.1 64.3499C822.41 63.4599 820.66 62.7099 818.85 62.0699C817.98 61.7499 817 61.4099 816.33 60.7899C815.34 59.7899 815.27 58.1399 815.74 56.8899C816.33 55.5199 818 55.1199 819.31 54.6499C822.36 53.7099 825.04 52.0799 827.93 50.8399C829.34 50.2899 830.88 50.0999 832.34 49.7299C833.35 49.4899 834.38 49.3199 835.41 49.4499C837.3 49.6299 838.96 50.2399 840.72 50.7299C843.14 51.4399 844.21 49.4399 843.72 47.3199C843.41 45.4699 842.21 44.0699 841.33 42.4899C841.09 42.0099 840.83 41.3199 841.18 40.8699C841.53 40.3899 842.46 40.3799 843.09 40.4099C844.74 40.5299 846.43 40.6299 848.11 40.3599C849.72 40.1599 851.04 39.9599 852.56 40.1499C853.7 40.3099 855.04 40.7499 856.31 40.9199C857.9 41.0899 859.38 41.4099 860.93 41.6299C861.4 41.6999 862.03 41.8699 862.3 42.1299C862.74 42.5099 862.61 43.1199 862.51 43.6299C862.31 44.5399 862.13 45.6299 861.98 46.5499C861.7 47.8299 862.26 48.1699 863.45 48.2699C865.21 48.3999 867.32 48.5599 869.01 49.5199C870.41 50.3299 871.64 51.4499 873.25 51.8299C875.74 52.3399 878.03 53.5499 880.16 54.9399C882.59 56.1399 883.69 58.9099 882.28 61.3199C881.06 62.7599 879.05 63.3099 877.55 64.4199C875.78 65.6299 873.63 65.7199 871.73 66.5399C869.85 67.3699 868.52 68.9199 866.46 69.1099C866.13 69.1499 865.81 69.1699 865.48 69.1899C864.32 69.2699 862.53 69.2899 861.97 69.8899C861.14 71.1499 862.18 73.2999 862.4 74.7199C862.74 76.6099 857.87 76.0799 856.87 77.7399C854.78 80.0399 857.3 83.5099 855.53 85.9599C854.42 87.5099 853.59 89.1799 853.75 91.1599C853.64 93.5099 854.33 95.9699 853.14 98.0199C851.73 100.68 848.61 101.66 847.35 104.4C845.02 109.35 840.5 111.84 835.11 111.65C833.01 111.53 830.8 110.75 828.71 111.07C828.15 111.12 827.68 111.28 827.36 111.57C826.75 112.11 826.58 113.01 825.73 113.31C823.36 113.86 821 113.54 819 111.76C817.12 110.41 815.66 108.65 814.72 106.52C814 105.31 812.6 104.95 811.39 104.4C809.12 103.35 806.76 102.27 804.64 100.91C802.48 99.1999 799.92 98.1399 798.2 95.9999C796.3 93.3899 793.62 91.0299 791.86 88.3899C790.52 85.8599 789.79 82.8799 788.64 80.1899C787.97 78.5799 786.37 77.3999 785.86 75.6699C785.51 74.5999 785.6 73.4199 785.33 72.3399C785.11 71.3799 784.62 70.4999 784.23 69.5999C783.44 67.5899 783.31 65.0699 781.84 63.2499C781.01 62.0299 779.29 61.2399 778.69 59.9999C778.08 58.6599 778.16 56.8999 778.98 55.7099C779.87 54.5899 781.25 54.0199 782.04 52.7699C783.54 50.6999 783.79 48.1799 785.01 45.9299C785.98 44.2199 785.77 42.2199 786.4 40.4099C786.93 38.9199 787.98 38.0299 788.79 36.7699C789.56 35.4699 789.93 33.9599 790.5 32.5899C790.63 32.1799 790.81 31.7499 790.75 31.3399" fill="white"/>
<path d="M1009.46 12.3C1009.75 14.96 1008.54 17.47 1007.75 19.97C1007.06 22.61 1005.43 24.85 1004.82 27.5C1004.48 29.51 1004.02 31.47 1003.42 33.43C1002.65 36.22 1002.6 38.61 1001.79 41.37C1000.77 43.99 1001.27 46.71 1001.48 49.4C1001.72 51.58 1002.89 53.64 1003.27 55.82C1003.46 57.08 1003.25 58.33 1003.21 59.6C1003.04 63.03 1004.38 66.55 1003.9 70.07C1003.82 72.94 1002.13 76.09 1003.31 78.87C1004.26 80.35 1005.17 82.07 1005.27 83.92C1005.51 86.16 1005.56 88.3 1005.61 90.53C1005.2 93.27 1004.92 96.06 1004.76 98.83C1004.71 102.15 1005.52 106.18 1003.05 108.83C1001.66 110.21 999.88 111.14 998.05 111.73C996.23 112.59 993.82 112.91 991.63 112.62C988.56 112.62 985.82 109.91 986.62 106.68C987.5 103.31 988.89 99.85 988.58 96.25C988.61 95.22 989.12 94.18 989.31 92.97C989.56 90.8 989.33 88.71 989.53 86.54C989.43 83.43 989.92 80.22 989.44 77.11C989.32 76.15 989.58 74.99 989.53 74.1C989.51 73.01 989.47 71.96 989.13 70.89C988.76 69.4 987.62 68.14 986.98 66.7C986.02 64.05 985.18 64.5 982.86 65.27C980.81 65.78 978.28 66.13 976.18 66.24C972.95 66.43 969.77 64.91 966.51 65.15C963.82 65.49 960.93 65.17 958.12 64.96C956.15 64.88 953.85 65.43 951.81 65.46C950.83 65.51 949.88 65.39 948.9 65.33C946.64 65.17 944.21 65.81 941.97 66.1C938.34 66.69 934.53 65.95 931.06 64.82C929.75 64.37 929.04 65.18 928.6 66.25C928.02 67.64 926.84 69.05 926.36 70.52C925.93 71.77 925.82 73.2 925.72 74.41C925.65 75.02 925.72 75.38 925.76 75.97C926.01 77.62 925.54 79.28 925.53 80.94C925.71 82.89 925.95 84.8 925.84 86.7C926.08 88.46 925.95 90.29 925.92 92.03C926.16 94.12 927.14 96.18 926.8 98.29C926.54 102.11 929.79 105.59 928.81 109.34C928.24 111.09 926.95 112.32 925.07 112.69C923.02 113.03 920.79 113.31 918.82 112.55C912.37 110.51 910.15 108.13 910.59 101.25C910.7 98.13 910.34 94.91 909.87 91.74C909.59 90.08 909.96 88.47 909.99 86.83C910.03 84.99 910.05 82.78 910.94 81.11C911.49 80.01 912.32 79.04 912.4 77.76C912.38 73.31 910.63 69.39 911.55 64.93C911.65 64.31 911.77 63.67 911.84 63.05C912.27 60.72 911.77 58.46 912.01 56.09C912.45 53.49 913.8 50.93 913.76 48.28C913.98 46.07 914.36 43.9 913.42 41.77C912.69 39.1 912.36 36.45 911.8 33.77C911.29 31.8 910.5 29.74 910.25 27.82C909.97 26.42 909.43 25.21 908.77 23.99C907.71 21.75 906.9 19.21 906.06 16.87C905.02 13.03 905.1 7.85004 908.03 4.87004C911.92 0.400036 917.87 -0.219964 923.12 1.92004C924.33 2.46004 925.26 3.40004 926.09 4.40004C927.34 5.87004 928.79 7.39004 929.3 9.34004C930.22 12.24 929.56 15.25 930.04 18.19C930.3 20.92 928.56 24.01 928.31 26.83C928.45 29.07 930.35 31.14 929.84 33.47C929.63 34.73 928.88 35.81 928.54 37.08C928.28 37.96 928.15 38.87 927.85 39.73C927.38 40.96 926.76 41.9 926.87 43.19C926.95 44.83 927.73 46.58 929.64 45.83C931.18 45.37 932.62 45.38 934.06 45.32C936.24 45.05 938.35 45.41 940.66 45.41C941.94 45.38 943.21 45.41 944.47 45.63C946.76 46.2 949.56 45.63 951.85 46.46C953.89 47.26 955.39 49.82 957.76 49.82C960.06 49.82 961.56 47.18 963.51 46.42C964.71 45.89 965.99 45.97 967.28 45.87C971.33 45.49 975.49 44.86 979.54 45.19C981.46 45.36 983.34 45.08 985.23 45.56C985.86 45.69 986.56 45.93 987.16 45.72C988.1 45.41 988.61 43.72 988.42 42.5C988.29 41.44 987.58 40.62 987.22 39.63C986.9 38.77 986.79 37.85 986.57 36.96C986.28 35.65 985.59 34.53 985.41 33.18C984.98 31.07 986.5 29.07 986.79 27.19C986.94 24.13 984.87 21.07 985.06 18.05C985.68 12.08 984.26 9.15004 988.93 4.17004C991.36 1.27004 996.19 0.250036 999.77 0.700036C1005.56 1.81004 1009.77 6.17004 1009.47 12.22V12.31L1009.46 12.3Z" fill="white"/>
<path d="M1090.7 20.6799C1094.21 23.9399 1094.35 29.6999 1094.84 34.0499C1095.07 36.7799 1096.05 39.4199 1096.24 42.1499C1096.48 45.6699 1095.73 49.4099 1096.24 52.9999C1096.32 53.7299 1096.41 54.5099 1096.38 55.2299C1096.36 56.5999 1095.64 57.8699 1094.62 58.7499C1093.41 59.8699 1091.7 60.4299 1090.91 61.7099C1089.7 63.5699 1089.53 66.1299 1090.77 68.0099C1091.33 68.9099 1092.29 69.4199 1093.21 70.0299C1097.95 73.1399 1095.84 76.3699 1095.62 80.8499C1095.6 83.1099 1096.1 85.6599 1095.89 87.8199C1095.7 90.1899 1094.58 92.4299 1094.35 94.7899C1094.21 96.1899 1094.3 97.5699 1094.08 98.9499C1093.33 103.06 1092.03 108.3 1088.02 110.38C1083.53 113.33 1077.89 110.81 1076.41 105.85C1075.8 104.06 1075.62 101.56 1075.34 99.8899C1075.1 98.4299 1074.61 96.9599 1074.16 95.5199C1072.01 89.4599 1071.98 83.5399 1072.85 77.0899C1073.12 74.8399 1073.42 72.5599 1074.47 70.5499C1075.17 69.1799 1076.33 68.3299 1077.03 66.9599C1077.72 65.4799 1078.52 63.5299 1077.37 62.1799C1072.26 57.5299 1073.55 52.6699 1072.92 46.5299C1071.27 40.5899 1074.99 35.2399 1076.19 29.5999C1076.77 26.9699 1076.49 24.0699 1078.1 21.7799C1081.61 17.2099 1086.22 16.8799 1090.62 20.5899L1090.7 20.6599V20.6799Z" fill="white"/>
<path d="M1088.08 4.26994C1088.77 5.38994 1089.78 6.23994 1090.08 7.63994C1090.56 9.40994 1090.14 11.3499 1089.23 12.8799C1087.72 15.4399 1084.99 15.7799 1082.38 14.9699C1080.34 14.2899 1079.7 11.8899 1079.32 10.0299C1079.12 9.29994 1078.94 8.55994 1078.99 7.82994C1079.1 6.86994 1079.09 5.75994 1079.56 4.96994C1079.94 4.31994 1080.63 3.87994 1081.23 3.42994C1082.43 2.47994 1083.44 1.75994 1084.99 2.01994C1086.31 2.17994 1087.44 3.04994 1088.04 4.19994L1088.09 4.27994L1088.08 4.26994Z" fill="white"/>
<path d="M69.9698 161.69C70.9798 162.22 72.3398 161.88 73.4598 162.02C75.2498 162.12 77.0398 162.76 78.7498 163.23C80.3098 163.63 82.1498 164.06 83.5798 163.99C84.8198 163.9 86.0198 163.53 87.2898 163.65C89.2298 163.79 91.1198 164.9 92.2598 166.34C96.6698 171.47 93.0598 181.64 85.6098 179.46C84.3598 179.07 83.2398 178.22 81.9898 178.13C79.6598 178.19 76.9898 179.33 74.5898 179.69C70.5398 180.09 69.3898 179.78 69.6798 184.3C69.8998 186.86 70.6798 189.34 70.9298 191.9C71.4798 196.23 70.8598 200.38 71.1298 204.65C70.6498 210.23 73.7598 208.63 73.6398 212C73.0198 214.41 73.3698 217.16 73.2598 219.55C73.0298 222.38 73.7498 225.15 73.6298 227.98C72.7098 232.21 72.2898 236.5 70.6398 240.58C69.9798 242.18 68.1398 243.21 68.8798 245.07C70.3198 247.99 71.1398 251.65 71.6898 255.04C71.9498 256.74 71.5798 258.52 71.9798 260.21C72.2598 261.43 72.6398 262.58 72.3398 263.86C71.5798 267.41 67.3498 268 64.6498 269.51C62.1898 271.15 60.3598 274.07 57.1998 274.52C54.9498 274.65 52.8398 274.21 50.5698 273.89C46.1698 272.82 46.2098 277.5 40.6398 275.97C38.6698 275.49 36.7798 274.57 35.1198 273.48C34.2698 272.92 33.4698 272.25 32.4598 272.04C31.5298 271.83 30.3998 271.96 29.4298 271.83C28.0498 271.65 26.7298 271.12 25.4198 270.65C23.0998 269.89 20.6598 269.24 18.3598 268.15C16.6998 267.44 14.8498 266.32 13.5898 264.95C12.5798 263.85 11.8198 262.54 10.7898 261.45C8.19982 259.01 6.78982 255.51 6.16982 252.07C5.91982 250.18 6.60982 248.35 6.81982 246.52C6.88982 245.61 6.85982 244.61 6.57982 243.89C5.64982 242.04 4.00982 240.46 3.69982 238.25C3.23982 234.79 2.11982 231.51 1.11982 228.33C0.399822 226.31 -0.350178 224.44 0.159822 222.23C0.969822 218.79 3.12982 215.72 6.28982 214.02C7.60982 213.28 9.12982 212.58 10.6098 212.86C12.7998 213.29 14.7798 215.13 15.1798 217.3C15.5798 219.75 15.1698 223.1 13.5398 225.2C12.0098 226.88 12.0298 229.06 11.9898 231.32C11.7398 235.72 12.6598 240.36 15.5398 243.79C16.1198 244.35 16.7798 244.81 17.3698 245.36C18.5098 246.44 19.4798 247.92 20.8498 248.75C22.1598 249.67 23.9098 249.83 25.5598 250.34C27.2898 250.99 29.0198 251.77 30.4298 252.92C32.7098 255.23 33.5298 258.5 35.4598 261.21C35.9098 261.95 36.3998 262.7 37.1198 263.17C38.3598 263.93 39.9598 263.89 41.3598 264.2C46.3098 265.33 51.2798 266.26 55.6298 262.9C57.2398 261.47 57.4198 259.04 58.5298 257.26C59.2798 255.96 60.4598 255.06 61.0698 253.81C62.4398 251.09 60.5598 248.16 60.6498 245.26C60.5398 243.43 59.1498 242.34 58.2898 240.82C57.7598 239.84 57.5298 238.74 57.2498 237.68C56.4798 235.39 56.1798 233.13 55.7198 230.79C55.3798 229.23 54.9598 227.55 55.1598 225.95C55.6098 223.55 55.4998 220.96 55.4898 218.53C55.5998 216.15 55.1098 213.7 55.0298 211.31C55.0598 210.04 56.3398 209.5 56.9998 208.47C57.3898 207.86 57.5198 207.13 57.5098 206.41C57.6698 202.46 57.1198 198.55 57.3698 194.59C57.4898 192.35 57.7298 190.42 58.2098 188.42C58.7698 185.94 60.2698 180.1 56.4798 179.94C54.3498 179.83 51.9798 179.51 49.9998 178.84C48.8598 178.53 47.6798 178.02 46.4898 178.17C44.5398 178.48 42.8598 180.14 40.7798 179.96C37.5498 179.73 34.5398 176.44 34.2298 173.2C33.5198 167.38 38.5998 162.36 44.3798 163.98C47.3198 164.34 50.2798 162.95 53.1998 162.45C54.4398 162.12 55.6798 161.99 56.9498 162C57.5898 161.95 58.2798 161.93 58.7498 161.49C59.7198 160.41 60.0198 157.76 61.2398 156.57C62.4398 155.22 64.7398 155.38 66.2798 156.08C67.3698 156.64 68.1498 158.25 68.6298 159.56C68.9198 160.32 69.1498 161.24 69.8998 161.67L69.9698 161.71V161.69Z" fill="white"/>
<path d="M167.06 159.82C170.2 160.6 172.7 163.36 173.61 166.41C174.23 170.93 173.25 175.66 172.14 180.03C171.47 182.79 170.57 185.58 170.39 188.42C170.43 189.57 171.19 190.85 171.59 192.1C171.82 192.82 171.97 193.63 171.97 194.36C172.17 195.45 169.73 203.05 173.01 199.96C175.67 196.78 179.78 196.25 182.99 193.78C185.67 191.18 189.3 189.94 192.11 187.6C192.85 187.04 193.42 186.34 193.61 185.4C193.88 183.59 194.14 181.61 195.18 180.09C196.75 177.25 201.12 175.95 201.44 172.27C201.55 164.17 210.51 159.54 217.37 163.28C222.11 166.19 221.29 173.53 218.97 177.75C217.76 180.05 215.17 180.98 213.05 182.24C211.61 183.54 209.95 185.21 209.48 187C209.21 188.63 209.32 190.43 208.24 191.8C206.62 194.09 203.94 195.34 202.02 197.32C201.29 198.34 201.09 199.65 200.47 200.73C199.69 202.17 198.37 203.41 196.9 204.22C195.82 204.78 194.8 205.47 194.31 206.63C192.99 209.48 192.49 210.19 194.15 213C194.53 214.02 194.3 215 194.28 215.95C194.2 217.08 194.44 218.27 193.99 219.35C193.33 220.78 192.51 221.69 193.07 223.25C194.29 227.91 196.19 227.2 198.81 230.24C199.76 231.25 200.27 232.78 200.71 234.15C201.13 235.6 202.38 236.45 203.56 237.28C204.94 238.3 206.16 239.37 207.05 240.7C208.28 242.35 207.94 244.5 208.52 246.35C209.67 248.56 211.54 250.98 213.93 252.06C218.19 254.39 219.47 259.85 218.88 264.43C218.52 265.99 217.81 268.05 216.5 269.21C213.66 271.38 209.23 271.35 206.1 270.2C203.23 269.13 200.9 266.6 200.09 263.61C199.59 261.71 199.88 259.59 198.88 257.83C198.16 256.46 196.77 255.73 195.69 254.7C193.45 252.65 192.27 249.66 192.38 246.69C192.27 245.67 191.51 244.98 190.75 244.39C188.96 242.72 186.47 241.55 184.44 240.08C182.9 238.8 181.71 237.46 179.86 236.43C177.38 235.18 174.74 234.36 172.85 232.16C169.52 228.32 171.23 235.17 171.06 236.95C171.06 238.7 169.75 240.76 169.46 242.34C169.46 245.21 170.02 248.35 170.85 251.14C171.9 255.55 173.39 261.11 171.83 265.64C170.65 268.59 168.08 271.37 164.86 271.82C163.55 271.9 162.08 271.77 160.77 272.12C159.93 272.17 159.71 271.53 159.15 270.66C158.67 269.88 158.1 269.16 157.69 268.33C155.16 263.13 155.68 256.6 157.6 251.19C158.1 249.64 158.94 247.91 158.82 246.27C158.75 245.28 158.13 244.51 157.46 243.81C154.04 240.78 154.34 235.73 153.9 231.23C153.76 229.35 152.97 227.66 152.77 225.79C152.45 222.22 154.45 219.15 154.5 215.71C155.13 211.73 152.43 208.02 153.4 203.87C153.79 202.25 154.44 200.71 154.64 199.06C155.23 194.83 154.95 191.28 157.76 187.93C158.56 186.99 159.64 186.05 159.82 184.79C160.01 183.31 159.18 181.78 158.78 180.36C158.1 177.84 157.53 175.36 157.53 172.74C157.57 168.21 157.85 162.48 162.1 159.94C162.43 159.86 162.72 159.72 163.02 159.72C164.29 159.69 165.73 159.49 166.95 159.78L167.04 159.8L167.06 159.82Z" fill="white"/>
<path d="M83.6698 15.42C85.3198 18.15 87.3798 20.61 88.5998 23.67C89.4898 25.96 90.2698 27.92 92.0098 29.8C93.0798 31.02 94.1898 32.32 95.3998 33.39C96.7298 34.54 97.7798 35.18 98.6198 36.83C99.3498 38.25 100.21 39.6 100.55 41.12C100.91 43.49 100.25 46.5 102.09 48.55C103.05 49.81 104.24 50.94 105.12 52.25C107.98 56.51 109.36 62.43 112.13 66.8C115.05 71.31 119.6 75.16 122.11 79.99C123.1 81.8 122.99 83.71 124.06 85.55C124.94 87.25 125.5 88.9 126.61 90.58C128.51 93.76 132.04 95.93 133.67 98.9C134.63 100.72 135.38 103.57 135.43 105.85C135.43 107.37 134.38 108.59 133.31 109.57C131.75 111.03 129.89 112.32 127.74 112.8C125.93 113 123.87 113.37 122.17 112.97C120.58 112.43 118.92 111.35 117.79 110.17C116.59 108.85 116.01 107.18 115.2 105.6C113.66 102.3 111.55 99.78 109.89 96.59C108.18 93.28 106.89 89.55 105.05 86.59C103.83 84.58 102.31 82.63 101.25 80.52C100.38 78.96 100.23 77.03 99.3398 75.45C99.1198 75.12 98.8598 74.68 98.4598 74.64C98.0298 74.66 98.2898 76.19 98.0498 76.04C97.6598 75.74 97.3198 75.06 96.8498 74.77C95.9498 74.09 94.2298 74.35 92.9698 74.03C91.7498 73.79 90.5698 74.18 89.4298 74.59C87.3798 75.25 85.5098 75.28 83.5798 75.76C81.3298 76.24 78.9498 75.88 76.8298 76.82C75.5198 77.41 74.0098 78.55 73.7998 80.03C73.6698 81.09 74.2298 82.12 74.1798 83.19C73.9898 86.4 71.3898 88.42 68.1498 87.64C66.6898 87.4 65.2898 86.03 64.8798 84.57C64.4698 83.26 64.9398 81.88 64.9998 80.57C64.9198 78.35 62.4998 76.23 60.3298 76.29C56.6998 76.35 53.0298 75.76 49.5998 74.6C48.0698 73.95 46.4398 73.79 44.8198 74.13C42.7798 74.3 40.2098 73.44 39.1898 75.89C38.0698 78.71 37.0698 81.45 35.5498 84.13C34.7798 85.55 33.5898 86.67 32.8198 88.08C32.0098 89.69 31.5198 91.52 30.6298 93.09C29.0398 96.02 26.5498 99.16 25.2798 101.62C24.3998 103.34 23.6498 105.4 22.8198 107.24C22.1298 108.84 21.5998 109.75 20.4798 110.51C19.5198 111.16 18.4598 111.75 17.4798 112.36C16.2498 113.18 14.8398 112.98 13.4798 112.72C12.3598 112.56 11.2298 112.65 10.1198 112.28C8.82979 111.87 7.64979 111.09 6.54979 110.31C0.859787 106.46 3.45979 99.29 7.74979 95.31C9.50979 93.54 11.4198 91.7 12.8098 89.59C13.6798 88.21 14.0098 86.67 14.6298 85.35C15.1998 84.2 15.5398 82.91 15.9198 81.7C16.4398 80.05 17.4198 78.57 18.4498 77.17C21.7498 72.76 25.2598 69.32 27.8698 64.45C29.2698 61.88 30.2798 59.14 31.4798 56.47C32.3498 54.56 33.2198 52.79 34.5298 51.2C35.9898 49.39 37.9998 47.63 38.2098 45.31C38.3798 43.62 37.9098 41.82 38.4998 40.25C39.3498 38.36 40.2598 35.86 41.8698 34.57C43.5998 33.49 44.7998 32.55 46.2498 30.76C47.3798 29.45 48.5998 28.11 49.3498 26.59C50.2498 24.8 50.8598 22.79 51.9098 21.02C53.7298 18.11 55.6598 15.36 57.4698 12.43C58.2398 11.21 58.9198 9.90002 60.0698 8.98002C61.3098 7.93002 63.3398 7.41002 64.1998 6.45002C65.3698 5.02002 65.3398 2.90002 66.7298 1.51002C68.0498 0.0900197 71.0198 0.19002 72.3498 1.51002C73.5998 2.76002 73.6898 4.67002 74.5498 6.11002C75.5598 7.42002 77.5298 7.75002 78.9998 8.95002C80.9498 10.71 82.0798 13.25 83.6098 15.34L83.6698 15.43V15.42ZM73.4698 27.17C72.9298 27.53 72.4798 28.93 71.7298 29.61C70.8398 30.38 69.5198 30.54 68.3998 30.3C68.0098 30.2 67.6498 30.03 67.3498 29.76C66.5698 29.1 66.1798 27.49 65.6298 27.16C64.7898 26.72 64.3398 28.29 64.0098 28.89C62.9898 31 61.7998 32.8 60.7898 34.82C59.7698 36.3 58.4898 38.08 58.8898 39.96C59.1898 41.56 59.4798 43.09 58.6998 44.62C57.9098 46.19 57.3098 48.42 55.9898 49.59C55.1698 50.1 54.3498 50.35 53.8398 51.33C52.6898 53.29 51.6298 55.47 50.1398 57.13C49.5898 57.68 46.8898 59.79 48.6198 59.95C51.0798 59.9 60.7598 59.54 63.8298 59.44C65.5998 59.49 65.5098 57.47 66.1098 56.09C66.5798 54.79 67.1998 52.98 68.5698 52.57C69.6298 52.24 70.8398 52.57 71.5898 53.43C72.8398 54.99 72.6098 57.52 74.0598 58.95C75.1898 59.85 77.1298 59.48 78.7198 59.57C80.8998 59.64 83.1898 60.18 85.3698 60.23C87.7298 60.15 91.5798 60.67 88.6098 57.29C87.4798 55.86 86.6098 54.23 85.6398 52.75C85.1598 51.9 84.8498 51.04 84.0898 50.43C83.7098 50.1 83.2698 49.82 82.8798 49.49C81.6598 48.44 80.9098 46.39 80.2098 44.83C79.8698 43.9 79.6398 42.95 79.6698 41.98C79.6898 40.75 80.2398 39.47 79.9398 38.24C79.8198 37.66 79.5198 37.07 79.1998 36.54C78.5798 35.59 78.1298 34.57 77.7098 33.54C77.1398 32.21 76.1298 31.01 75.3898 29.45C74.9898 28.78 74.4498 26.73 73.5098 27.12L73.4598 27.15L73.4698 27.17Z" fill="white"/>
<path d="M188.79 2.53011C189.88 3.24011 190.57 4.39011 191.58 5.19011C192.59 6.03011 194.15 6.36011 195.42 7.05011C196.67 7.81011 198.11 8.07011 199.48 7.41011C202.39 6.19011 205.34 5.89011 208.35 6.63011C210.43 7.04011 212.84 7.59011 214.38 8.64011C216.13 10.0301 218.3 10.6701 220.19 11.8401C222.94 13.6901 224.47 16.3601 224.62 19.4601C224.89 21.1801 223.56 23.1901 224.32 24.8801C224.59 25.4501 225.03 25.9201 225.37 26.4601C226.01 27.4001 226.23 28.6001 226.73 29.2901C227.76 30.5801 229.53 31.1801 230.51 32.5701C233.05 35.4701 234.47 39.0301 232.38 42.6401C231.75 43.6901 230.97 44.6301 230.57 45.8201C230.12 47.5501 229.39 49.1801 228.72 50.8401C228.35 52.2401 229.91 52.7001 230.37 54.0101C230.7 54.9101 230.59 55.8901 230.61 56.8301C230.61 57.8801 230.68 59.0101 229.97 59.9301C229.54 60.5601 228.74 61.0901 228.73 61.9101C228.71 62.5001 229.06 63.0901 229.32 63.6401C230.11 65.1101 230.33 66.7701 230.97 68.3101C231.68 69.8501 232.85 71.1101 233.21 72.8701C234.16 76.6501 231.59 80.1201 228.75 82.4801C227.94 83.0501 227.28 83.4901 226.81 84.2201C226.29 84.9801 226.01 86.1001 225.35 87.0201C222.32 90.0801 225.21 91.9501 224.36 95.4401C223.67 98.6301 221.33 101.71 218.3 102.92C217.28 103.33 216.28 103.74 215.37 104.36C213.41 105.93 211.1 106.44 208.67 106.83C207.34 107.11 206.04 107.51 204.68 107.55C202.65 107.63 200.68 107.03 198.84 106.31C197.46 105.67 196.05 106.01 194.8 106.7C193.66 107.28 192.09 107.63 191.12 108.27C189.88 109.13 189.15 110.49 187.79 111.26C184.23 113.5 178.93 114.05 176.28 110.36C175.11 108.72 174.31 106.42 173.77 104.48C173.52 103.52 173.53 102.58 173.48 101.61C173.43 100.27 173.09 98.9201 173.09 97.4801C173.09 95.6201 173.37 93.4601 173.16 91.7601C172.95 90.0801 172.8 88.4401 172.15 86.8701C171.99 86.4401 171.82 85.9801 171.77 85.5001C171.66 84.5501 171.77 83.6001 171.65 82.6501C171.54 81.3101 170.86 79.8201 170.57 78.5301C169.97 76.2501 171.97 74.8601 169.36 73.5001C167.06 71.9701 164.71 69.9101 162.94 67.9001C161.72 66.4301 160.86 64.7101 159.9 62.9501C159.35 61.9201 158.9 60.7601 159.05 59.5801C159.17 57.8101 161.34 56.9101 160.14 55.2701C157.9 52.7301 159.87 50.3601 161.19 47.6501C162.99 43.6401 167.06 41.3101 170.32 38.7501C171.66 37.7801 170.6 36.5001 170.74 34.9501C171.05 32.5701 172.34 30.3201 172.34 27.8601C172.79 25.2701 173.61 22.7901 173.78 20.1701C173.81 17.8201 173.3 15.4101 173.93 13.1501C174.36 11.4601 174.32 9.71011 174.81 8.02011C176.83 0.780111 182.32 -1.42989 188.67 2.47011L188.75 2.53011H188.79ZM213.7 30.3201C212.38 29.0601 210.13 28.7101 208.94 27.1501C207.69 25.6301 206.04 23.4501 204.08 23.2501C203.12 23.1601 202.17 23.4101 201.2 23.2201C199.57 22.9401 197.99 22.0501 196.33 21.8701C194.8 21.7001 193.52 22.6401 191.96 23.0201C189.29 23.7101 185.13 22.8301 185.76 27.0001C186.11 28.7001 185.31 30.4201 185 31.9001C184.89 33.4401 185.49 35.0301 185.21 36.5901C185.05 38.1201 184.93 39.5701 184.86 41.0601C184.83 41.7201 184.8 42.4001 185.19 42.9601C186.18 44.1301 187.95 44.8101 189.33 45.4901C190.37 45.9301 191.27 45.5701 192.48 45.4401C193.3 45.3501 194.12 45.4801 194.9 45.6901C196.53 46.1601 198.31 46.3101 199.87 47.1401C201.71 48.2501 203.44 49.1101 205.61 48.2701C207.9 47.8101 209.87 46.8301 211.71 45.4601C213.5 44.5201 216.03 43.8301 216.31 41.5601C216.26 40.5401 215.91 39.4701 216.03 38.4101C216.09 35.6401 215.79 32.5201 213.79 30.3901L213.73 30.3201H213.7ZM212.06 68.0301C210.97 67.5401 210.1 66.6401 209.05 66.0701C208.02 65.4701 206.83 65.2401 205.58 64.8601C204.71 64.5801 203.78 64.3401 202.87 64.4801C201.8 64.6301 200.87 65.2501 199.92 65.7401C198.38 66.5801 196.64 66.8201 195.07 67.2501C194.41 67.4201 193.75 67.6001 193.07 67.6301C191.46 67.6601 190.05 66.8301 188.57 67.6401C187.44 68.2401 185.97 68.7201 185.23 69.5801C183.57 72.0301 185.51 75.3901 185.07 78.0901C184.94 78.9201 184.59 79.7201 184.64 80.5701C184.7 81.7601 185.4 82.8201 185.55 84.0001C185.77 85.4601 185.11 87.1101 185.75 88.3001C186.74 90.0101 189.07 89.7101 190.77 89.9701C192.34 90.1401 193.77 91.2801 195.32 91.3601C197.23 91.3901 199.06 90.3501 200.95 90.1201C202 89.9301 202.97 90.1501 204 89.9701C206.49 89.5801 207.71 86.9501 209.48 85.4501C210.31 84.8101 211.21 84.3901 212.16 84.0101C213.41 83.5301 214.18 82.5801 214.8 81.2701C215.95 79.0301 215.94 76.4301 215.84 74.0001C215.84 72.9501 216.34 71.7801 216.2 71.0001C216.14 70.5601 215.89 70.1401 215.71 69.7501C215.69 69.7001 215.67 69.6601 215.65 69.6201C215.47 69.2701 216.02 69.3001 216.1 69.0601C216.14 68.9501 216.06 68.8601 215.96 68.7701C215.25 68.1401 214.36 68.6201 213.24 68.4101C212.86 68.3401 212.5 68.2301 212.15 68.0701L212.06 68.0301Z" fill="white"/>
<path d="M321 2.44008C322.91 4.11008 325.87 5.29008 328.28 5.90008C329.76 6.35008 331.36 5.87008 332.8 5.27008C335.66 3.97008 338.53 3.59008 341.56 4.22008C343.76 4.84008 345.88 5.80008 347.98 6.65008C349.82 7.66008 351.83 8.11007 353.87 8.19007C359.05 8.48007 361.46 14.7301 360.69 19.1801C360.04 22.3901 357.54 25.4501 354.17 25.8001C352.97 25.8401 351.79 25.4301 350.63 25.1601C348.81 24.7001 346.9 24.7401 345.03 24.7601C342.7 24.7801 340.45 24.8301 338.48 23.7501C336.59 22.7701 334.73 21.7101 333.09 20.4601C332.2 19.7701 331.25 19.0401 330.08 18.9901C327.97 18.9301 326.2 20.3701 324.29 21.0901C321.36 22.2501 318.31 22.8601 315.24 22.5301C313.49 22.2301 312.04 22.8201 310.89 24.1901C309.32 25.8701 308.28 27.6701 306.52 29.0501C305.13 30.1401 303.26 30.8101 302.87 32.7201C302.29 35.6501 301.26 38.3901 300.54 41.3201C300.05 42.8501 298.86 44.1501 298.73 45.7901C298.63 47.4801 299.69 48.9301 299.52 50.6001C299.18 52.5701 299.45 54.4901 299.7 56.3401C299.68 57.6101 299.35 58.8601 299.34 60.1301C299.29 61.1301 299.56 62.1501 299.46 63.1601C299.39 64.6801 298.41 66.0001 298.64 67.5301C298.93 69.2401 300.17 70.5801 300.56 72.3401C300.99 74.4001 301.71 76.0101 302.12 78.2301C302.51 82.9301 304 82.2501 306.95 84.8701C308.12 86.3001 309.59 87.6801 310.5 89.2501C311.44 91.3001 311.9 91.6001 314.16 91.0201C323.63 89.5101 326.65 96.2601 331 94.3601C333.39 92.7801 335.69 90.8401 338.45 89.7101C341.31 88.5301 344.65 89.2101 347.66 88.9201C350.22 88.9601 352.8 87.5101 355.31 88.3801C361.84 90.7901 362.32 101.38 356.57 104.95C354.08 106.42 350.99 105.67 348.43 106.9C344.39 108.83 339.8 111.02 335.29 109.46C333.27 109.02 331.18 107.94 329.17 107.66C328.35 107.62 327.43 108.02 326.62 108.29C325.55 108.63 324.42 108.88 323.4 109.36C321.73 110.07 320.5 111.45 318.87 112.32C317.14 113.2 314.7 113.54 312.72 113.62C311.5 113.69 310.33 113.3 309.18 113.03C308.24 112.79 307.29 112.73 306.38 112.35C303.3 110.82 300.48 108.39 298.35 105.67C295.47 102.26 291.03 97.4201 289.08 92.9401C287.93 90.7101 288.24 88.4401 288.43 86.0601C288.54 81.9001 287.82 77.5301 287.57 73.2701C287.5 72.1401 287.38 71.0601 287.15 69.9601C286.8 68.3001 286.44 66.6701 286.44 64.9901C286.41 63.6601 286.9 62.2401 286.71 60.9501C286.35 59.3201 285.19 57.6901 285.44 56.0501C285.5 54.5801 286.57 53.3801 286.76 51.9201C286.85 51.2101 286.74 50.5001 286.66 49.7901C286.46 47.9901 286.64 46.0001 286.99 44.1501C287.46 41.9701 287.72 39.8001 287.93 37.5601C288.38 33.3101 288.99 29.0101 288.69 24.8001C288.58 22.8801 289.18 21.1301 290 19.4201C291.91 15.1701 295.18 12.1501 298.07 8.70008C299.82 6.12008 302.27 3.99008 304.89 2.30008C305.76 1.76008 306.52 1.33008 307.53 1.10008C309.22 0.830076 310.72 0.230076 312.42 0.0600757C315.32 0.0400757 318.94 0.610076 320.95 2.42008L321.02 2.48008L321 2.44008ZM312.76 22.1501C312.27 20.7701 311.26 22.0001 311.42 22.9101C311.45 22.9901 311.52 22.9101 311.67 22.8501C311.96 22.6701 312.54 22.4201 312.78 22.2201V22.1601L312.76 22.1501Z" fill="white"/>
<path d="M591.31 4.94006C592.97 4.00006 594.81 3.81006 596.71 3.92006C599.61 3.48006 602.37 4.26006 605.1 5.10006C607.41 5.74006 609.85 6.76006 611.77 8.15006C613.2 9.47006 614.08 11.2901 614.86 13.1001C617.06 17.3201 613.7 21.6101 609.42 22.5101C608.34 22.8001 607.2 22.9901 606.13 23.2901C604.01 23.8801 601.91 24.9001 599.68 25.0601C598.14 25.2201 596.47 24.8601 594.9 24.7601C593.57 24.6601 592.23 24.5301 591.06 23.8101C588.6 22.3201 587.95 20.8801 584.73 21.1501C582.54 20.7801 580.71 20.3301 578.5 20.2101C577.12 20.1501 575.7 20.5501 574.34 20.2601C572.78 19.9401 571.59 18.2401 569.87 18.4801C568.76 18.6301 567.58 19.3801 566.47 19.9201C565.35 20.4701 563.95 21.1801 563.87 22.5801C563.79 23.9901 564.66 25.1101 564.87 26.4701C565.56 29.4201 565.62 32.5201 566.01 35.4801C566.64 37.4901 568.32 39.6201 568.74 41.6001C569.21 42.9501 569.34 44.4501 569.92 45.7501C570.46 46.9101 571.74 46.9301 572.84 46.7901C574.68 46.5401 576.84 46.5701 578.66 46.2301C579.76 46.0401 580.87 45.8501 581.93 46.3101C584.14 47.2801 586.67 50.2601 587.41 52.6401C587.85 53.8801 587.25 55.1101 587.2 56.3501C587.14 57.3301 587.64 58.2501 587.65 59.3401C587.59 61.6401 585.66 64.0201 583.86 65.5101C582.31 66.9501 580.35 67.0701 578.39 66.6801C576.75 66.4701 575.02 66.4901 573.5 66.2801C572.21 66.0701 570.61 66.0501 570.02 67.4701C569.12 69.8201 569.02 72.3401 567.71 74.6201C567.22 75.4901 566.71 76.3901 566.49 77.3601C566.16 80.4901 565.97 83.8001 565.28 86.9601C564.99 88.2901 564.2 89.4701 564.36 90.8401C564.79 92.9601 567.49 93.4201 569.15 94.3101C571.09 95.2301 572.73 94.0901 574.34 93.1301C575.81 92.3301 577.43 92.8401 578.97 92.9401C580.73 92.8101 582.16 92.4401 583.92 92.1601C585.16 91.7901 586.48 92.0201 587.7 91.6701C589.32 91.0701 590.85 89.2701 592.55 88.7001C596.75 87.6501 601.6 86.9701 605.5 89.0901C607.91 90.3201 610.89 89.6801 613.11 91.3701C618.47 95.4201 616.25 99.8901 612.89 104.39C611.13 106.09 608.6 107.01 606.19 107.55C604.77 107.98 603.34 108.63 601.83 108.92C600.47 109.36 599.05 109.2 597.63 109.13C596.44 109.07 595.18 109.21 594.08 108.89C592.66 108.46 591.41 107.79 589.9 107.65C588.38 107.41 587.14 107.6 585.81 107.78C584.38 107.99 582.68 107.64 581.33 107.91C579.97 108.12 578.64 108.7 577.25 108.58C575.84 108.5 574.82 107.43 573.62 107.94C568.41 111.46 568.25 113.99 560.86 113.59C552.25 113.69 544.95 106 547.01 97.3901C547.55 95.1301 549.21 93.0301 549.38 90.7301C549.34 89.7001 548.54 88.6501 548.21 87.4601C547.84 86.0701 548.19 84.6601 547.82 83.3501C547.61 82.4601 547.19 81.6001 546.85 80.7401C545.6 77.3701 545.39 73.9701 546.64 70.6001C547.78 68.1201 548.39 64.1601 545.61 62.6101C542.66 60.6001 536.77 61.0201 537.47 55.9501C537.83 52.9101 543.64 52.4301 545.66 50.8501C547.59 49.8001 547.68 47.1701 547.37 45.2301C545.64 40.9601 544.87 37.8901 546.3 33.3201C546.63 32.2401 547.15 31.2201 547.42 30.1301C547.79 28.8601 547.5 27.5601 547.84 26.1301C548.15 24.7501 549.08 23.5201 548.98 22.4501C548.66 20.3801 547 18.5101 546.47 16.4001C544.84 10.0501 548.94 2.55006 555.4 0.830061C559.74 -0.349939 565.66 -0.649939 569.29 2.53006C570.67 3.43006 571.72 5.29006 573.42 5.61006C574.3 5.70006 575.29 4.96006 576.38 4.82006C578.59 4.67006 580.86 5.73006 583.07 5.45006C585.46 5.25006 588.79 5.81006 591.26 4.97006L591.35 4.94006H591.31Z" fill="white"/>
<path d="M468.61 18.1101C469.53 18.7101 470.76 18.6901 471.75 19.1501C473.52 19.8701 474.53 21.7401 475.87 23.1201C477.35 24.7401 479.31 25.8401 480.47 27.7501C481.45 29.3201 481.49 31.3101 482.08 33.0201C483.13 35.8701 484.91 38.3801 485.78 41.3501C486.42 43.3601 487.96 45.1601 488.43 47.2001C488.74 48.6601 488.56 50.3801 489.75 51.4601C490.42 52.1601 491.31 52.5901 492.19 52.9701C493.54 53.5401 494.69 54.3001 496.11 55.0701C496.67 55.3701 497.27 55.6601 497.8 56.0001C499.3 56.8701 499.49 58.7101 498.72 60.0601C498.17 60.9901 496.72 61.4501 495.53 62.0501C493.79 63.0501 491.98 63.5301 490.16 64.4201C487.97 65.4601 487.98 67.4701 487.53 69.5101C487.08 71.1201 485.85 72.5101 485.1 73.9701C484.48 75.1401 484.13 76.4301 483.57 77.6301C482.71 79.5601 481.07 81.1501 480.29 83.1901C479.5 85.1301 479.23 87.2401 477.9 88.9301C476.84 90.4201 475.13 91.3601 473.7 92.4601C471.1 94.8401 470.65 96.5001 466.72 96.9801C465.69 97.2301 465.05 97.8501 464.39 98.6901C463.61 99.6501 462.77 100.55 461.94 101.46C458.9 104.9 453.77 104.99 449.5 104.16C447.22 103.52 445.77 104.18 444.38 106.01C441.96 108.82 439.36 112.92 435.85 113.55C432.63 114.07 429.67 111.67 428.85 108.59C427.97 105.95 426.36 107.6 424.91 108.59C423.53 109.52 421.83 109.92 420.25 110.39C416.21 111.76 411.63 110 408.93 106.83C406.45 103.92 405.62 100.48 405.02 96.5901C404.87 95.5501 404.84 94.4401 404.49 93.4501C403.72 91.4701 401.73 90.0101 401.16 87.9101C399.61 83.4301 403.56 79.7501 405.47 75.9701C406.05 74.9901 406.42 73.8301 406.04 72.7201C405.74 71.7401 405.13 70.9001 404.73 69.9601C403.28 66.7701 404.32 62.7401 404.28 59.3701C403.98 57.7201 402.2 56.2701 402.92 54.4701C403.34 53.2401 404.56 52.4501 404.7 51.1101C404.9 47.6401 404.24 43.5801 406.05 40.4701C406.66 39.3901 407.63 38.2801 407.61 36.9901C407.53 35.4101 406.64 33.7101 405.94 32.2501C404.93 30.3101 403.27 28.2701 403.15 26.1401C402.99 24.0701 403.95 22.0701 405.27 20.5201C406.08 19.6001 406.99 18.8801 407.43 17.8401C408.53 14.5501 408.97 10.2101 410.77 7.47006C413.59 3.07006 419.49 -0.179942 424.59 2.37006C425.86 2.87006 427.33 3.19006 428.34 3.92006C429.6 4.74006 431.3 7.21006 432.5 4.88006C433.95 0.780058 437.92 -1.36994 441.89 1.00006C444.27 2.43006 445.42 5.18006 447.23 7.31006C448.35 8.62006 449.4 10.4101 451.32 10.2501C452.99 10.0501 454.64 9.72006 456.33 9.97006C458.97 10.2701 461.84 10.7601 463.8 12.5601C465.59 14.1601 466.78 16.5101 468.53 18.0801L468.61 18.1301V18.1101ZM455.1 22.9501C454.14 22.1801 453.52 20.9801 452.35 20.3901C451.08 19.7701 449.36 19.7101 447.91 19.5001C446.6 19.3301 445.37 19.7701 444.1 19.9501C443.02 20.0901 442.01 19.9101 440.95 19.7001C439.24 19.4501 437.62 18.9001 435.89 18.6901C434.19 18.5301 432.48 18.8001 430.8 19.0401C428.39 19.4501 425.46 19.1901 423.97 21.4301C421.71 24.7401 423.46 28.9601 422.6 32.6001C422.35 33.9201 421.76 35.2301 421.69 36.5701C421.58 38.5801 423.34 40.1701 423.88 41.9901C424.38 43.4501 424.36 44.9701 424.34 46.5001C424.41 48.7201 424.4 50.9401 424.09 53.1301C424.13 55.0001 424.24 56.8901 423.95 58.7601C424.01 62.3601 424.05 66.5501 422.95 70.0301C422.37 71.6601 420.62 73.0501 420.19 74.6101C419.82 76.2601 420.76 77.9601 420.78 79.6301C421.26 83.9201 418.39 90.8601 423.85 92.8701C426.4 93.3901 429.17 93.9301 431.54 94.1701C433.46 94.2201 435.59 93.9601 437.65 93.8901C438.86 93.8201 440.04 93.4901 441.25 93.6701C442.37 93.8101 443.28 94.3401 444.45 94.3501C446.2 94.2801 448.14 94.1901 449.84 93.7101C450.72 93.3901 451.34 92.6201 452.22 91.8901C453.17 91.0601 454.28 90.6001 455.49 90.2701C458.76 89.5701 461.66 88.2101 464.27 86.3501C466.22 84.9601 467.72 83.0801 469.04 81.4001C470.13 80.0601 471.3 78.6301 472.06 77.0701C472.73 75.6601 472.88 74.1801 473.37 72.6001C473.75 71.3201 474.19 69.9701 474.73 68.7301C475.47 66.9301 476.92 65.5701 476.77 63.6101C476.7 62.2201 475.63 61.3301 474.34 61.0501C472.87 60.6201 470.64 60.1801 469.91 59.1301C469.3 58.3001 469.27 57.0201 469.86 56.1901C471.75 53.7801 476.83 55.4901 477.33 51.8001C477.49 50.0001 476.06 48.7501 475.54 46.9801C474.96 45.3401 474.45 43.5601 474.09 41.8701C473.81 40.5201 473.8 39.4001 473.28 38.1401C470.86 33.5501 467.77 29.1701 463.24 26.5401C460.93 24.8901 457.53 24.6201 455.17 22.9901L455.1 22.9301V22.9501Z" fill="white"/>
<path d="M289.47 159.7C290.64 159.78 291.9 159.66 292.88 160.52C294.19 161.72 295.03 163.51 295.19 165.27C295.32 166.95 294.18 168.37 294.42 170.03C294.67 171.52 295.2 173 295.85 174.36C296.5 175.65 297.5 176.54 298.05 177.99C298.59 179.44 299.16 181.08 299.04 182.62C298.89 184.13 298.49 185.63 298.29 187.13C297.93 189.1 298.06 191.13 297.97 193.11C297.87 195.72 297.45 198.51 297.14 201.12C297.01 202.86 296 204.3 295.59 205.97C294.55 209.96 294.6 214.19 294.86 218.23C295.05 219.82 295.02 221.64 294.81 223.24C294.63 224.58 294.07 225.71 293.59 226.95C292.36 230.29 292.18 233.31 292.28 236.79C292.54 239.13 292.02 242 293.17 244.09C293.61 244.68 294.31 245 294.96 245.3C296.04 245.77 296.98 246.35 298.12 246.63C299.36 246.95 300.85 246.98 302.09 247.57C302.81 247.9 303.48 248.38 304.19 248.72C305.95 249.59 307.38 247.86 309.1 247.39C310.16 247 311.19 246.5 312.25 246.09C314.56 245.23 317.32 245.3 319.81 245.58C321.95 245.9 324.04 246.66 326.2 246.28C334.5 245.29 337.05 249.45 339.95 256.38C341.12 259.58 339.85 262.17 338.2 264.88C336.63 268.19 334.35 270.92 330.47 271.38C327.4 271.85 324.41 270.62 321.37 271.5C318.99 271.93 316.21 272.2 313.9 271.77C311.28 271 308.87 269.66 306.43 268.49C304.27 266.96 302.48 269.37 300.33 269.66C298.25 269.87 296.49 270.22 294.68 271.21C293.08 272 291.36 271.48 289.68 271.55C285.34 272.68 284.75 272.45 281.6 269.07C277.3 265.59 278.44 262.05 278.91 257.37C278.97 255.08 278.35 252.62 279.33 250.45C280.24 248.67 281.62 247.32 281.66 245.27C282.59 239.06 283.96 232.45 281.83 226.36C280.71 223.31 280.75 219.97 281.3 216.8C281.42 214.62 281.64 212.33 281.76 210.12C281.58 207.58 281.28 205.19 280.42 202.86C279.89 201.58 279.99 200.11 279.92 198.73C279.79 197.3 279.54 196.13 279.58 194.65C279.72 190.5 279.94 186.36 279.1 182.27C278.94 180.24 279.93 178.23 280.86 176.5C282.17 174.85 283.35 173.27 284 171.19C284.18 170.72 284.35 170.25 284.43 169.76C284.78 168.11 283.74 166.62 283.94 164.94C284.23 163.07 285.21 161.12 286.8 160.06C287.59 159.6 288.46 159.69 289.37 159.73H289.47V159.7Z" fill="white"/>
<path d="M406.39 161.15C412.22 163.64 412.22 164.75 414.65 170.25C416.22 175.06 416.79 176.91 421.32 179.54C423.17 180.59 424.33 181.89 425.96 183.3C426.62 183.83 427.49 184.22 428.33 183.97C431.02 182.65 434.2 184.03 436.94 184.04C438.29 183.7 439.28 182.49 440.36 181.67C441.61 180.62 443.03 179.87 444.38 179.08C447.1 177.72 448.64 175.25 449.37 172.26C450.29 170.16 451.48 168 452.37 165.82C453.38 163.62 455.85 163.19 457.72 161.98C462.69 158.99 468.99 160.65 472.12 165.5C475.39 169.02 476.77 173.09 474.97 177.72C474.44 179.23 472.8 180.54 472.71 182.19C472.79 183.47 473.92 184.45 474.58 185.5C475.77 187.14 476.63 188.57 477.15 190.68C477.75 192.97 478.06 195.94 477.53 198.11C477.21 199.57 476.09 200.48 475.46 201.79C474.29 204.1 475.44 206.57 475.16 208.99C475.19 210.89 473.96 212.37 473.44 214.11C473.18 215.29 473.42 216.58 473.38 217.95C473.37 219.13 473.19 220.38 473.64 221.5C474.44 223.12 475.46 224.9 475.65 226.67C475.88 228.31 475.98 229.99 476.01 231.65C476.07 234.83 475.17 237.77 475.12 240.76C475.12 242.11 475.24 243.52 475.72 244.82C476.29 246.26 476.96 247.46 476.98 248.88C476.75 251.41 477.62 253.76 477.04 256.26C476.65 258.27 475.13 259.63 474.04 261.26C473.07 262.91 472.44 264.68 471.46 266.33C470.19 269.06 468.51 271.16 465.49 271.77C461.27 272.63 456.87 272.02 453.29 269.63C450.8 268.19 449.26 265.59 447.07 263.65C444.7 261.22 442.9 258.11 443.08 254.6C443.01 252.7 442.8 250.93 443.67 249.19C444.59 247.38 445.53 245.29 446.83 243.79C448.12 242.46 448.91 240.72 450.01 239.24C451.36 237.2 451.49 234.82 450.61 232.46C449.31 228.63 447.27 225.39 450.67 221.84C451.42 221.07 452.49 220.32 452.45 219.15C451.85 216.33 449.01 213.98 449.14 210.87C449.32 207.87 450.81 204.65 449.38 201.76C448.92 200.91 447.05 203.61 446.3 204.13C444.41 205.96 443.64 208.69 441.69 210.53C441 211.22 440.19 211.78 439.4 212.34C436.33 214.53 435.41 216.67 431.16 216.14C429.02 216.3 427.22 215.21 425.72 213.78C424.18 212.45 423.02 211.39 421.57 209.8C420.08 208.32 419.02 206.59 418.17 204.7C417.54 203.55 416.48 202.67 415.68 201.7C414.04 199.32 413.52 202.04 413.31 203.57C413.34 210.13 415.49 210.68 410.91 216.91C410.48 217.61 410.2 218.24 410.38 218.88C410.72 219.89 411.79 220.46 412.46 221.26C414.44 223.18 414.61 226.08 413.67 228.5C411.25 233.24 410.55 235.77 413.59 240.55C414.55 242.38 416.21 243.73 416.94 245.74C417.71 247.44 419 248.8 419.26 250.46C419.5 252.84 419.24 255.66 418.48 257.94C417.49 260.06 415.71 261.51 414.5 263.36C412.43 265.46 410.59 267.94 407.86 269.22C404.28 271.23 399.42 272.17 395.37 270.45C394.09 269.88 392.67 269.22 391.8 268.12C390.32 265.77 389.5 262.88 388.18 260.49C387.27 258.68 385.47 257.25 385.16 255.18C384.72 253.4 385.06 251.69 385.34 249.9C385.49 248.69 385.36 247.46 385.67 246.27C386.32 244.18 387.23 242.21 387.54 240.04C388.19 236.42 386.34 232.56 386.99 228.94C387.66 226.04 387.57 222.87 389.5 220.34C390.17 219.14 389.89 217.75 389.9 216.43C389.98 214.28 390.31 212.62 389.16 210.91C387.45 207.56 389.22 203.35 387.94 199.97C387.32 198.72 386.2 197.69 385.89 196.29C384.81 191.17 387.49 186.21 390.51 182.27C390.91 181.64 391.31 180.97 391.28 180.22C391.04 178.4 389.35 176.77 389.12 175C388.8 173.12 388.77 171.02 389.36 169.3C392.96 162.52 398.3 156.83 406.35 161.09L406.43 161.13L406.39 161.15Z" fill="white"/>
<path d="M586.92 160.67C590.47 162.33 591.28 166.34 593.17 169.48C594.1 171 595.35 172.44 595.92 174.14C596.93 177.9 596.84 181.78 596.38 185.64C596.72 191.04 596.29 196.2 596.29 201.65C596.11 206.53 598.59 211.02 599.36 215.79C599.61 217.29 599.13 218.79 598.79 220.27C597.85 223.28 601.27 224.61 600.09 227.78C599.73 228.97 599.05 230 598.71 231.2C598.05 233.65 597.91 236.34 597.45 238.74C596.26 242.13 595.82 245.84 595.82 249.39C595.7 252.31 596.84 254.95 597.1 257.77C597.11 258.76 596.7 259.68 596.52 260.63C596.27 261.93 596.3 263.47 595.63 264.75C593.25 269.27 586.66 271.76 582.02 269.36C579.99 268.62 578.69 266.69 576.82 265.83C575.72 265.52 574.4 266.6 573.34 267.08C567.7 269.85 562.56 266.78 561.38 260.91C561.11 259.1 561.27 257.27 560.49 255.57C558.52 251.95 558.78 247.59 559.06 243.55C559.21 240.54 560.25 237.78 560.25 234.64C560.25 233.22 559.44 232.18 558.76 230.92C557.98 229.14 557.56 227.17 556.07 225.81C552.85 222.98 547.2 220.51 548.77 215.31C549.22 213.37 548.98 211.58 549.06 209.56C549.04 206.46 550.17 202.92 548.52 200.23C546.83 198.44 543.92 197.31 542.76 194.95C542.27 194.24 542.34 192.88 541.56 192.5C539.26 193.18 539.46 197.52 539.39 199.52C539.34 202.11 540.91 204.14 541.97 206.39C542.9 208.6 543.17 210.9 544.34 213.19C546.03 216.32 546.64 219.95 545.06 223.27C543.93 225.28 543.12 227.44 542.27 229.52C541.47 230.9 539.87 231.78 540.49 233.58C541.57 237.37 542.04 241.45 541.16 245.29C540.74 247.13 540.61 249.09 541.32 250.89C542.75 255.98 544.29 257.9 542.91 263.38C542.42 266.57 540.33 268.4 537.99 270.25C535.28 272.41 531.88 272.48 528.71 271.52C524.99 270.49 522.44 267.51 521.94 263.78C521.62 262.3 520.63 261.04 520.92 259.5C521.8 255.81 521.83 252.74 521.33 248.74C521.22 246.27 520.65 244.19 519.84 241.92C519.46 239.31 519.31 236.88 517.99 234.43C516.97 231.75 514.83 229.36 516.43 226.53C518.17 223.76 515.74 220.77 516.05 217.79C516.48 213.2 519.19 208.9 518.56 204.25C518.51 200.84 517.86 197.43 517.4 194.1C517.13 190.99 517.15 187.95 517.01 184.83C517.11 182.04 516.49 178.81 517.06 176.13C517.38 175.14 517.8 174.17 518.29 173.25C522.51 166.48 522.54 159.78 532.78 161.17C535.98 161.01 539.08 162.51 542.04 163.57C544.48 163.87 547.84 163.86 549.67 166.04C551.21 167.57 552.07 170.19 551.71 172.52C551.05 174.91 550.66 176.45 552.06 178.69C554.23 182.86 555.86 187.63 557.61 192.03C558.11 193.63 558.01 195.41 558.51 197.02C558.98 198.8 559.97 200.39 560.51 202.15C561.25 204.56 561.29 206.76 562.11 209.25C563.1 212.51 564.8 215.42 565.83 218.63C566.53 220.42 566.51 222.65 567.16 224.31C567.41 224.91 567.71 225.49 567.89 226.11C568.23 227.15 567.86 228.08 568.2 229.39C568.71 231.07 569.32 232.96 570.25 234.37C571.58 235.94 572.39 237.71 573.56 239.52C574.24 240.72 576.21 245.87 575.99 241.36C575.77 239.33 575.29 237.2 575.61 235.11C575.74 233.9 576.35 232.57 576.15 231.38C575.98 230.37 575.04 229.87 574.31 228.79C573.1 226.67 572.09 224.16 570.86 222.03C568.58 216.21 570.59 214.94 572.06 209.88C572.46 204.26 576.41 201.53 574.92 195.21C574.44 192.76 572.59 190.68 571.16 188.67C569.79 186.73 568.17 184.36 567.14 182.2C566.36 180.63 566.38 178.82 566.01 177.14C565.72 175.88 565.07 174.83 565.09 173.59C565.64 167.14 570.45 161.52 576.84 160.21C580.13 159.81 583.75 159 586.82 160.6L586.91 160.64L586.92 160.67Z" fill="white"/>
<path d="M692.31 167.04C693.29 168.69 695.83 169.28 697.63 169.9C698.94 170.29 700.14 171.18 701.27 171.73C704.72 173.55 708.45 173.54 710.71 177.37C711.71 178.93 712.91 180.79 713.68 182.48C714.22 183.56 713.95 184.71 713.95 185.85C713.95 186.89 714.47 187.92 714.98 188.84C717.07 193.07 717.94 197.85 718.11 202.6C718.16 204.08 717.95 205.58 718.23 207.04C718.54 208.56 719.11 209.87 719.21 211.45C719.63 214.49 719.45 217.36 719.28 220.43C719.23 222.79 719.13 225.27 718.93 227.65C718.82 229.5 719.19 231.3 719.16 233.13C719.12 235.32 718.66 237.6 718.94 239.75C719.06 240.87 719.58 241.88 720.06 242.88C720.62 243.99 720.77 245.21 721.06 246.53C721.4 247.89 721.69 249.22 721.4 250.64C720.64 255.02 718.05 258.72 714.93 261.83C711.34 265.08 706.31 266.39 701.77 267.54C697.66 268.37 693.48 268.62 689.45 269.65C688.22 270.08 687.55 271.58 686.32 271.95C685.28 272.21 684.21 272.14 683.16 272.04C681.59 271.96 680.93 270.21 679.78 269.54C679.17 269.19 678.47 269.12 677.77 269.03C675.04 268.71 672.57 268.33 669.98 267.54C668.13 267.21 666.44 266.94 664.73 266.19C661.69 265.19 658.49 264.23 655.84 262.36C653.72 260.77 652.33 258.41 650.66 256.42C647.19 251.9 647.43 246.12 649.87 241.17C650.85 239.48 651.33 237.17 650.9 235.2C650.61 233.7 650.93 231.46 651.07 229.61C651.41 226.88 650.73 224.15 650.9 221.44C651.21 217.55 650.8 214.01 651.51 210.17C651.63 208.42 652.55 207.03 652.89 205.4C653.02 204.52 652.79 203.62 652.91 202.74C653.34 200.99 653.76 199.47 653.61 197.67C653.74 195.37 654.18 192.92 654.94 190.82C655.54 189.09 656.78 187.53 657.41 185.84C657.8 184.78 657.52 183.79 657.59 182.71C657.94 180.27 659.93 178.02 661.41 175.95C663.1 173.61 665.68 172.93 668.33 172.01C670.2 171.51 671.68 170.5 673.42 169.74C674.75 169.27 676.19 169.21 677.47 168.59C682.14 166.71 678.83 161.92 683.18 159.92C684.12 159.53 685.15 159.65 686.14 159.64C687.87 159.56 689.76 159.78 690.7 161.43C691.96 163.02 691.53 165.19 692.24 166.94L692.28 167.02L692.31 167.04ZM678.8 188.2C677.89 187.31 676.51 187.32 675.3 187.61C673.86 188.02 672.08 188.12 670.78 189.01C669.43 189.98 669.02 191.61 668.13 192.99C667.64 193.77 667.06 194.59 666.59 195.42C665.5 197.4 664.27 199.27 664.29 201.58C664.28 203.22 663.9 204.73 664.77 205.98C665.2 206.62 665.83 207.14 666.34 207.73C667.62 209.24 668.17 210.57 669.06 212.55C670.16 215.36 671.49 217.8 671.59 220.58C671.59 223.19 670 225.31 667.93 226.84C667.34 227.31 666.69 227.76 666.43 228.48C666.05 229.23 666.56 232.87 667.52 232.79C667.91 232.68 668.45 231.43 668.65 231.3C668.77 231.22 668.8 231.38 668.84 231.5C669.24 232.72 668.03 234.04 667.74 235.19C667.55 235.97 667.99 237.06 668.37 238.08C669.21 239.93 669.82 242 670.78 243.8C672.98 246.66 677.3 242.18 679.13 240.63C680.27 239.69 681.71 238.88 683.21 239.24C683.91 239.37 684.63 239.63 685.32 239.6C686.1 239.6 686.94 239.21 687.87 239.3C690.9 239.75 692.37 243.04 694.95 244.41C699.39 247.24 700.49 241.36 701.68 238.29C701.99 237.43 702.64 236.34 702.16 235.47C701.83 234.91 701.2 234.54 700.85 233.98C700.15 232.75 700.7 231.28 701.2 229.78C701.66 228.61 701.75 227.37 700.95 226.3C698.83 223.89 698.65 220.6 699.78 217.64C700.88 214.59 702.54 211.06 704.42 208.66C705.02 207.91 705.87 207.26 706.36 206.45C706.83 205.45 706.4 204.12 706.65 202.96C707.09 199.34 705.02 196.8 703.32 193.76C702.49 192.4 702.1 190.81 700.85 189.74C699.21 188.46 697.19 188.23 695.28 187.78C693.67 187.48 692.32 188.71 692.02 190.24C691.46 192.55 690.76 195.12 690.21 197.43C689.89 198.63 689.47 199.85 688.42 200.62C687.11 201.52 685.44 201.54 683.94 201.15C679.34 199.8 680.93 191.66 678.85 188.24L678.8 188.18V188.2Z" fill="white"/>
<path d="M804.47 161.49C806.54 161.91 809.09 162.88 811.13 163.1C814.06 163.03 817.24 163.34 819.94 164.76C821.25 165.45 822.57 165.11 823.93 164.95C825.14 164.83 826.46 165.21 827.41 165.98C828.38 166.74 828.76 167.92 829.1 169.05C829.56 170.71 830.42 172.28 831 173.99C831.79 176.94 833.01 179.29 834.74 181.77C835.63 183.18 835.92 184.9 835.65 186.55C835.36 188.21 835.46 189.67 835.56 191.32C836 194.83 833.06 197.22 831.85 200.3C831.04 202.5 830.08 204.78 829.19 207C828.98 208.03 829.1 208.46 828.32 209.35C827.99 209.79 827.76 210.32 827.41 210.76C826.72 211.6 825.63 211.95 824.6 212.13C823.19 212.44 821.69 211.68 820.35 212C819.43 212.2 818.64 212.75 817.74 213.03C815.15 213.88 811.61 213.89 808.73 214.15C806.73 214.3 804.75 214.74 802.81 215.38C801.7 215.69 800.17 216.25 800.51 217.68C800.64 218.41 801.01 219.2 801.22 219.93C801.7 221.45 801.58 223.19 801.29 224.83C801.06 225.99 800.67 227.07 800.87 228.2C801.02 229.22 801.59 230.15 801.88 231.12C802.38 232.82 801.81 234.7 801.61 236.42C801.08 239.55 801.62 242.61 801.44 245.71C801.38 247.3 802.18 248.8 802.75 250.27C803.75 252.71 803.1 255.39 802.03 257.71C799.98 261.97 805.44 262.08 802.29 268.47C801.24 270.38 798.88 272.1 796.66 272.11C794.04 272.1 791.04 269.05 789.88 267.01C788.96 264.8 789.5 262.1 789.16 259.74C788.85 255.15 787.98 250.6 787.51 246.04C787.39 243.77 787.69 241.33 787.56 239.01C787.16 234.01 786.69 228.81 788.33 223.97C789.23 220.7 791.42 217.13 789.67 213.77C788.9 212.22 787.37 210.93 787.11 209.22C786.96 206.96 787.43 204.37 788.92 202.68C790.16 201.46 790.58 199.73 790.59 198.02C790.57 196.12 791.17 193.95 790.59 192C790.19 191 789.15 190.4 788.53 189.55C787.81 188.57 787.83 187.31 788.61 186.39C789.21 185.7 790.23 185.28 790.63 184.44C791.35 182.27 790.68 179.67 790.75 177.47C790.89 175.79 790.11 174.36 788.99 173.17C787.95 171.89 787.82 170.06 787.62 168.42C787.31 164.2 791.56 161.24 795.02 159.85C798.17 158.99 801.49 160.85 804.39 161.45L804.48 161.47L804.47 161.49ZM824.1 193.27C824.4 192.15 824.81 190.81 824.86 189.62C824.86 187.71 824.22 185.37 823.44 183.26C821.81 178.25 817.63 174.01 812.23 173.2C810.77 172.96 809.34 173.39 807.92 173.58C805.97 173.65 803.7 174.14 802.71 175.93C802.42 176.48 802.44 177.15 802.54 177.76C802.83 179.31 803.26 181.02 803.93 182.54C804.46 183.83 805.52 184.66 806.52 185.59C808.18 187.19 808.2 189.49 806.57 191.1C805.35 192.26 804.02 193.3 803.49 194.87C803.1 195.93 802.9 197.05 802.58 198.13C802.39 198.8 802.16 199.51 802.28 200.2C802.71 201.87 804.73 203.01 806.43 203.08C807.51 203.15 808.58 203.4 809.64 203.6C811.13 203.9 812.78 203.61 814.35 203.15C816.62 202.44 818.53 200.93 820.39 199.59C820.99 199.07 821.87 198.91 822.15 198.17C822.27 197.81 822.28 197.49 822.38 197.12C822.68 195.86 823.77 194.55 824.08 193.32L824.1 193.25V193.27ZM820.7 201.08C820.53 200.97 820.31 201.18 820.14 201.25C819.68 201.54 819.12 201.57 818.71 201.99C818.38 202.31 818.05 202.66 817.64 202.89C817.39 203.03 817.4 203.02 817.29 203.08C816.61 203.36 816.21 203.76 815.63 204.18C814.59 204.8 812.88 205.34 811.76 205.82C811.18 206.1 811.06 206.39 811.73 206.27C812.36 206.14 813.04 205.82 813.65 205.56C815.56 204.82 817.08 203.58 818.69 202.66C819.4 202.36 820.9 202.07 820.73 201.09L820.71 201.07L820.7 201.08Z" fill="white"/>
<path d="M942.88 167.48C943.52 168.65 944.85 169.1 946.01 169.57C947.08 169.97 948.25 170.49 949.49 170.47C951.67 170.26 953.88 170.32 955.81 171.53C959.16 173.33 962.7 175.2 966.31 176.29C968.19 176.75 969.99 177.72 970.95 179.46C971.49 180.38 971.78 181.51 972.38 182.16C973.55 183.32 975.33 183.87 976.52 184.94C977.37 185.71 977.91 186.53 978.43 187.43C979.32 188.73 980.39 190.13 980.81 191.76C981.1 192.83 981.14 193.97 981.25 195.07C981.42 198.24 982.86 201.07 983.89 203.99C984.47 206.01 985.05 208.26 984.92 210.31C984.79 211.87 984.16 213.47 984.34 215.06C984.44 216.36 985.11 217.5 985.55 218.71C986.11 220.3 985.91 221.71 986.05 223.19C986.38 225.99 985.15 228.64 984.45 231.23C984.25 232.67 983.41 233.82 982.5 234.91C981.77 235.88 981.44 236.95 980.99 237.97C980.5 239.06 979.86 240.14 979.58 241.35C978.77 243.9 979.19 246.62 979.27 249.24C979.23 250.15 979.48 250.84 980.21 251.4C981.12 252.13 982.1 252.88 982.96 253.69C984.6 255.1 986.32 256.95 988.31 257.49C989.49 257.82 990.69 257.83 991.88 258.15C996.3 259.31 997.68 263.58 996.17 267.63C995.28 269.89 993.1 271.16 990.91 271.9C988.02 272.56 985.34 272.05 982.92 270.14C981.42 268.99 979.87 268.12 978.93 266.32C978.08 264.85 978.1 263.04 976.89 261.77C975.72 260.65 974.09 259.27 972.59 259.25C970.56 259.32 968.85 260.81 966.83 261.51C965.19 262.05 963.34 261.74 961.7 262.29C960.27 262.75 959.43 264.02 958.07 264.71C956.87 265.31 955.49 265.57 954.21 265.97C952.76 266.4 951.36 267.1 949.81 267.36C948.61 267.56 947.39 267.52 946.2 267.27C945.2 267.09 944.17 266.52 943.23 267.06C941.73 268.21 939.65 268.75 937.83 267.97C937 267.68 936.28 267.05 935.38 267.08C934.94 267.08 934.44 267.24 933.99 267.37C932.2 267.94 930.2 268.03 928.39 267.47C927.31 267.15 926.27 266.72 925.17 266.45C923.64 266.08 921.9 265.8 920.64 264.91C919.71 264.28 918.93 263.41 917.85 263.04C916.59 262.59 915.16 262.85 913.84 262.72C912.03 262.59 910.72 261.63 909.24 261.03C906.27 259.91 903.96 259.88 902.51 256.58C901.4 254.62 899.65 252.16 899.51 249.72C900.05 246.41 899.75 242.71 897.84 239.77C897.11 238.5 896.72 237.04 895.71 235.88C895.31 235.4 894.91 234.88 894.63 234.32C893.91 232.63 893.38 230.72 892.74 228.89C892.04 226.4 891.88 223.6 892.06 221.05C892.26 219.86 892.88 218.63 893.28 217.52C893.69 216.26 893.57 214.98 893.33 213.64C892.52 210.86 892.92 207.94 893.66 205.18C894.05 203.52 894.88 202.02 895.37 200.34C895.77 198.87 895.88 197.44 896.08 196.02C896.35 194.14 896.33 191.99 897.34 190.32C898.54 188.82 899.22 187.12 900.56 185.82C901.77 184.69 904.28 183.92 905.17 182.42C907.03 177.49 908.69 177.49 913.31 175.94C916.5 174.88 919.13 172.9 922.09 171.36C923.75 170.48 925.53 170.5 927.33 170.63C928.86 170.69 930.11 170.09 931.43 169.54C932.84 169 934.09 168.03 934.36 166.45C934.82 164.58 934.23 162.33 935.54 160.73C936.69 159.38 938.86 159.42 940.37 160.07C942.88 161.53 941.64 165.17 942.84 167.4L942.89 167.49L942.88 167.48ZM922.9 247.37C923.13 248.44 922.95 249.58 923.07 250.65C923.59 253.39 926.68 252.23 928.78 252.19C930.59 252.13 932.29 252.73 934.02 252.79C934.4 252.79 934.8 252.73 935.12 252.54C935.71 252.2 935.84 251.42 936.02 250.54C936.51 248.11 938.04 247.51 940.32 247.69C941.4 247.61 942.48 248.35 942.83 249.44C943.45 250.91 943 252.49 944.56 252.67C946.37 252.81 948.16 252.31 949.96 252.21C951.67 252.07 953.36 252.54 954.87 251.78C956.25 251.1 956.05 249.44 956.07 248.11C956.22 246.36 955.29 245.13 953.99 243.89C951.61 240.99 947.33 240 945.84 236.33C944.49 233.35 945.86 229.9 948.3 227.89C950.01 226.44 952.49 226.31 954.68 226.7C956.3 226.97 957.54 228.16 958.49 229.44C959.76 231.08 959.87 232.74 960.72 234.5C961.26 235.58 962.11 236.72 963.21 237.26C964.29 237.79 966.03 237.77 966.64 236.64C966.88 236.22 966.99 235.69 967.09 235.2C967.38 233.76 968.17 232.29 968.42 230.86C968.63 229.74 968.69 228.57 969.12 227.51C969.81 226.11 970.6 224.88 970.89 223.25C971.31 221.77 971.42 220.36 970.4 219.23C967.31 215.48 966.98 210.25 968.33 205.69C969.69 202.53 969.2 201.36 967.61 198.41C966.8 196.81 965.71 196.01 965.31 194.49C964.8 192.77 965.86 190.75 964.47 189.3C963.54 188.27 962.1 188.08 960.9 187.6C959.54 187.01 958.26 186.2 956.75 186.1C954.81 185.97 952.25 185.76 950.45 186.82C948.74 187.95 946.74 188.77 945.77 190.62C944.36 192.88 943.82 196.31 941.18 197.45C940.24 197.73 939.29 197.54 938.28 197.61C937.4 197.65 936.58 197.64 935.79 197.15C933.18 195.31 932.83 191.5 930.61 189.3C929.84 188.56 928.59 188.16 927.53 187.56C926.09 186.66 924.47 186.23 922.76 186.45C920.41 186.62 918.29 187.33 916.17 187.96C914.8 188.41 913.03 189.12 912.88 190.75C912.8 191.54 913.06 192.35 913.12 193.14C913.28 195.44 911.45 197.7 910.14 199.48C908.24 201.78 908.84 203.2 910.04 205.63C911.07 208.44 911.18 211.43 910.48 214.35C910.05 216.48 908.97 218.48 907.62 220.16C906.96 221.21 907.26 222.51 907.39 223.7C907.57 225.9 908.94 227.71 909.72 229.83C910.44 231.75 910.61 233.81 911.25 235.6C911.56 236.58 911.73 237.51 912.64 238.01C913.21 238.33 913.9 238.45 914.52 238.69C915.63 239.1 916.31 239.95 917.29 240.68C919.69 242.28 922.41 244.24 922.86 247.27L922.88 247.37H922.9Z" fill="white"/>
<path d="M1079.63 160.49C1080.38 160.66 1081.13 160.88 1081.9 160.98C1083.82 161.15 1085.91 160.61 1087.56 161.88C1089.01 162.87 1089.69 164.65 1091.17 165.62C1092.84 166.81 1095.17 166.69 1096.58 168.29C1097.9 169.68 1098.32 171.62 1099.01 173.31C1099.85 175.07 1100.56 177.01 1101.23 178.8C1101.68 179.75 1102.45 180.36 1103.19 181.06C1105.23 182.99 1104.88 186.34 1105.09 188.91C1105.37 190.33 1106.84 191.22 1107 192.81C1107.22 194.53 1107.31 196.43 1106.3 197.91C1105.89 198.53 1105.45 199.16 1105.28 199.89C1104.96 201.6 1105.37 203.55 1104.87 205.21C1104.54 206.95 1103.34 208.01 1102.26 209.23C1101.49 210.13 1101.21 211.35 1100.79 212.46C1100.28 213.79 1099.78 215.09 1099.34 216.44C1098.67 218.41 1097.84 220.92 1096.09 221.8C1095.47 222.21 1093.53 222.42 1094.36 223.48C1095.8 224.88 1097.99 225.25 1099.51 226.88C1102.51 229.51 1101.49 233.53 1102.64 236.97C1103.27 238.77 1103.95 240.67 1105.12 242.18C1106.05 243.36 1107.58 244.48 1108.41 245.89C1108.95 246.77 1109.24 247.77 1109.52 248.74C1109.9 250.31 1110.87 251.68 1112.07 252.76C1113.5 254.23 1114.56 255.54 1116.31 256.47C1118.23 257.63 1118.15 260.14 1118.17 262.13C1118.09 263.93 1118.63 266.25 1117.14 267.44C1115.61 268.57 1113.12 268.41 1111.62 267.43C1110.65 266.76 1109.84 265.88 1108.94 265C1107.03 263.33 1106.61 260.81 1105.5 258.66C1104.57 256.87 1102.89 255.44 1101.65 253.8C1101.09 253.09 1100.54 252.38 1099.94 251.7C1097.61 249.1 1094.5 247.36 1092.21 244.7C1090.89 243.25 1090.19 241.33 1089.01 239.78C1086.53 237.11 1083.64 234.17 1083.56 230.28C1083.58 228.74 1083.17 228.11 1081.64 228.69C1079.63 229.35 1077.37 229.51 1075.26 229.87C1071.09 230.27 1067.04 229.6 1062.94 230.04C1062.05 230.17 1061.67 230.61 1061.67 231.48C1061.69 232.55 1061.85 233.76 1061.76 234.86C1061.77 237.02 1060.4 238.95 1059.78 240.83C1059.22 243.42 1059.06 246.89 1059.35 249.44C1059.62 250.7 1060.61 251.54 1061.2 252.67C1061.81 253.81 1062.04 255.17 1061.69 256.41C1061.39 257.49 1060.76 258.48 1060.57 259.6C1060.02 262.78 1063.13 265.43 1061.71 268.56C1061.09 270.16 1059.91 271.77 1058.48 272.09C1055.03 272.53 1051 270.64 1050.2 267.01C1049.81 264.39 1051.45 261.96 1051.51 259.36C1051.68 257.12 1050.77 255.04 1050.77 252.83C1050.7 250.15 1051.24 247.34 1051.18 244.7C1051.13 242.25 1050.61 240.43 1049.31 238.5C1048.25 236.48 1047.23 233.63 1047.01 231.55C1046.67 229.71 1047.81 228 1048.21 226.2C1048.31 225.39 1047.92 224.72 1047.58 224C1047.06 222.97 1046.88 221.51 1046.95 220.25C1047.07 218.05 1048.46 215.97 1047.62 213.75C1046.53 210.31 1046.01 206.75 1045.62 203.14C1045.48 202.25 1045.34 201.32 1044.96 200.52C1044.57 199.65 1043.8 199.05 1043.09 198.34C1041.78 196.99 1041.64 194.58 1042.43 192.96C1042.96 191.99 1044.06 191.46 1044.59 190.5C1045.44 188.73 1045.38 186.36 1045.62 184.24C1045.78 181.4 1046.89 178.47 1047.25 175.66C1047.52 174.14 1046.72 172.82 1046.33 171.4C1045.72 168.44 1046.61 165.41 1048.83 163.44C1055.25 158.71 1071.62 159.35 1079.5 160.48L1079.6 160.5L1079.63 160.49ZM1082.01 175.12C1079.28 174.25 1076.11 172.88 1073.32 173.85C1072.19 174.27 1071.08 174.76 1069.84 174.8C1065.5 175.13 1059.73 175.02 1060.19 180.96C1060.26 182.22 1060.85 183.48 1061.08 184.87C1061.32 185.98 1061.48 187.14 1061.77 188.24C1062.7 191.72 1067.69 189.95 1067.69 194.55C1068.02 198.96 1065.39 198.36 1062.69 200.26C1061.61 201.3 1061.68 203.6 1061.37 205.31C1061.14 206.84 1060.39 208.44 1060.63 209.98C1060.87 211.26 1061.09 212.61 1062.16 213.43C1063.69 214.54 1065.73 214.43 1067.58 214.78C1069.19 215.08 1070.9 214.9 1072.47 215.41C1073.8 215.88 1075.16 216.26 1076.6 216.05C1078.76 215.73 1080.78 215.05 1082.77 214.32C1083.82 213.69 1084.15 213.17 1085.12 212.71C1086.76 211.99 1088.62 211.47 1089.65 209.86C1091.89 207.01 1089.76 204.59 1089.53 201.65C1089.5 200.07 1089.87 198.51 1089.98 196.9C1090.27 194.89 1090.28 193 1089.8 190.89C1089.58 189.81 1089.23 188.89 1089.24 187.79C1089.17 185.83 1090.48 183.69 1090.27 181.86C1090.06 180.67 1089.32 179.47 1088.42 178.71C1087.58 178.01 1086.49 177.85 1085.53 177.39C1084.35 176.87 1083.28 175.71 1082.1 175.15L1082.01 175.11V175.12Z" fill="white"/>
<path d="M66.3598 317.58C72.2498 318.78 79.5998 320.68 82.6898 326.49C83.3498 328.3 84.3199 329.92 84.8699 331.78C85.2598 334.14 83.4998 336.14 81.7098 337.45C77.8398 340.35 73.9398 340.93 69.9099 338.86C67.8899 338.01 66.2799 335.79 64.4398 334.81C63.0199 334.29 61.5598 334.46 60.1198 334.21C58.7698 334.07 57.3498 334.7 55.8798 334.9C53.1998 335.09 50.6898 336.58 48.1298 337.06C45.9698 337.14 44.3798 338.28 43.0598 339.94C40.9998 342.3 39.2098 345.14 37.4398 347.72C36.7398 348.76 36.0198 349.89 35.7098 351.11C35.3298 352.43 35.9798 353.75 36.0998 355.16C36.0598 357.19 37.0798 358.97 38.8998 359.9C39.8398 360.46 40.8698 360.46 41.8898 360.8C43.1798 361.27 44.4998 362.33 45.9698 362.62C47.8498 362.84 50.0598 363.4 51.7798 362.93C55.3798 361.3 59.1898 361.36 61.3298 365.01C62.0198 366.24 62.8598 366.85 64.1798 366.17C67.5598 364.59 72.0798 364.6 74.8898 367.04C77.0998 368.85 79.7998 372.14 81.0698 374.65C81.9198 376.36 82.2298 378.23 83.0998 379.93C85.4798 384.67 88.2898 389.44 89.0998 394.72C89.5998 397.54 88.0898 400.12 87.2798 402.72C85.9698 407.48 84.4498 412.37 81.3398 416.34C79.0998 419.35 76.4798 422 73.0698 423.67C70.6798 424.85 68.2498 425.2 65.6398 426.04C62.8998 426.87 60.0498 427.46 57.3198 428.09C51.9898 429.41 46.9798 426.67 41.6698 426.63C39.1298 426.32 37.0198 428.18 34.7298 428.63C33.7498 428.77 32.7698 428.7 31.7998 428.44C27.5098 427.51 25.4898 425.71 24.0798 421.48C23.1298 418.32 24.4098 412.91 27.1498 410.93C28.1298 410.25 29.2798 409.89 30.3598 409.4C32.1898 408.49 33.9298 407.75 35.9998 407.76C39.5498 407.72 42.9698 407.02 46.4298 407.46C49.0398 407.8 50.8398 410.46 53.6598 410.28C55.8798 410.23 57.5198 409.44 59.6198 409.11C62.4098 408.22 64.5798 406.96 67.6498 406.69C68.5299 406.59 69.6598 406.69 70.3798 406.18C71.3898 405.16 70.2798 403.45 70.3598 402.18C70.3298 400.88 70.6498 399.42 71.0998 398.15C71.4398 397.23 71.9798 396.42 72.1798 395.46C72.5198 393.02 72.1098 389.91 70.3498 388.02C69.7398 387.36 68.9098 387.07 68.1098 386.7C66.4998 385.93 65.3598 384.67 63.8198 383.82C62.2198 382.65 60.8398 381.3 58.9398 380.63C57.3498 379.67 55.9498 377.74 55.3498 376.13C55.1198 375.45 54.9798 374.74 54.1998 374.46C53.2298 374.11 51.4098 374.21 50.1598 374.05C43.2698 372.97 36.7898 370.24 30.4298 367.45C28.7298 366.68 27.0198 365.79 25.4098 364.94C24.7298 364.56 24.0698 364.08 23.5998 363.46C22.5298 362.11 22.9598 360.35 22.8598 358.76C22.7698 357.17 22.1598 355.58 21.5498 354.01C19.4998 349.18 20.2298 347.35 22.9098 343.06C23.3698 342.19 23.6198 341.35 23.8298 340.42C24.1298 338.97 24.6998 337.35 24.6598 335.72C24.2198 332.24 25.3598 328.27 28.5998 326.49C29.9798 325.7 31.6198 325.32 33.2598 324.67C35.0698 323.8 36.7798 323.06 38.6698 322.48C40.6298 321.69 42.5898 320.65 44.6998 320.38C45.6098 320.24 46.5098 320.15 47.3698 319.84C49.2698 319.1 51.0098 317.59 52.9698 316.97C57.1398 315.72 62.2598 316.13 66.2698 317.59L66.3598 317.62V317.58Z" fill="white"/>
<path d="M194.71 323.38C195.8 324.83 196.74 326.3 198.15 327.52C199.37 328.46 200.46 329.56 201.06 330.97C201.62 332.21 202.19 333.58 203.76 333.41C205.07 333.32 206.48 332.89 207.77 333.03C209.46 333.21 211.23 334.24 213.12 334.43C214.81 334.64 216.47 334.1 218.14 334.06C221.52 334.06 226.89 334.68 228.41 338.18C230.33 343.37 226.89 346.39 222.65 348.68C221.05 349.37 219.01 349.04 217.46 348.43C216.4 347.98 215.37 347.18 214.23 347.01C213.53 346.89 212.78 346.99 212.06 347.09C209.06 347.52 205.85 347.43 202.8 347C200.51 346.54 199.26 347.07 197.47 348.66C196.28 349.72 194.21 350.1 193.45 351.36C192.46 353.27 193.82 355.21 194.7 356.98C195.56 359.08 196.99 361.04 197.36 363.29C197.46 364.54 196.87 365.78 196.43 366.94C195.87 368.58 195.27 370.42 194.97 372.06C194.67 373.55 195.12 375.28 194.78 376.71C194.47 378.53 192.39 379.98 193.1 381.94C193.4 382.75 193.96 383.49 194.2 384.31C194.57 385.33 194.6 386.23 194.74 387.23C195.02 388.57 194.96 389.89 194.64 391.21C194.34 392.94 194.66 394.85 194.57 396.65C194.24 398.84 194.17 401.18 194.15 403.3C193.91 404.84 194.53 405.95 194.92 407.4C195.19 408.69 194.57 409.61 194.15 410.92C193.8 411.97 193.72 413.12 193.37 414.15C193.01 415.27 192.36 416.47 191.85 417.78C191.1 419.65 189.75 421.34 189.09 423.2C188.48 424.74 188.27 426.59 187.13 427.85C185.95 428.99 183.93 428.71 182.38 428.53C180.29 428.12 179.78 425.63 179.12 423.91C177.86 420.29 175.85 416.96 174.76 413.25C174.4 412.04 174.24 410.79 173.74 409.66C173.57 409.24 173.4 408.83 173.32 408.38C173.09 407.28 173.7 406.26 173.97 405.22C174.25 404.21 173.89 403.41 173.9 402.18C173.88 401.35 174 400.49 174.04 399.66C174.12 398.25 173.81 397.09 173.8 395.75C173.83 393.21 173.63 390.97 173.56 388.43C173.82 386.92 173.88 385.41 174.35 383.96C175.46 381.53 176.26 381.02 174.56 378.49C172.93 376.2 173.85 373.77 173.41 371.27C172.65 366.56 169.47 364.34 172.6 359.4C173.82 356.98 176.35 354.15 175.37 351.39C174.7 350.2 173.16 349.88 172.09 349.14C170.84 348.39 169.81 347.11 168.45 346.77C165.86 346.33 163.36 347.45 160.73 347.17C159.5 347.13 158.24 347.06 157.04 346.81C155.67 346.48 154.45 346.31 153.18 347.11C152.2 347.64 151.13 348.26 150.03 348.48C146.8 349.27 143.82 347.61 141.91 345.11C141.05 344.09 140.07 343.16 139.89 341.79C139.68 339.63 139.92 337.17 141.67 335.73C143.79 334.51 146.17 333.84 148.57 333.68C151.03 333.33 153.17 334.16 155.66 334.11C156.72 334.05 157.77 333.73 158.77 333.39C159.95 332.96 161.15 332.62 162.4 332.78C164.69 333.07 166.36 333.8 167.44 331.51C168.15 329.78 169.57 328.32 171.02 327.02C172.59 325.38 173.94 323.76 175.23 321.79C176.48 319.97 177.79 317.94 179.73 316.84C181.85 315.6 184.46 316.51 186.8 316.25C190.76 316.25 192.58 320.61 194.64 323.26L194.7 323.34L194.71 323.38Z" fill="white"/>
<path d="M293.98 318.98C295.12 319.77 296.78 320.21 297.69 321.35C300.26 324.25 300.44 328.39 300.38 332.03C300.38 332.91 300.52 333.78 300.5 334.66C300.36 335.79 300.35 337.05 300.93 338.09C301.22 338.92 301.85 339.57 302.14 340.39C302.65 341.96 303.03 344.08 302.76 345.76C301.94 347.93 300.77 349.82 299.11 351.55C298.38 352.3 297.68 353.06 297.08 353.92C294.86 357.04 299.54 359.26 297.1 364.41C296.56 365.83 296.51 367.3 295.53 368.28C294.87 368.98 294.01 369.57 293.73 370.53C293.36 372.32 293.34 374.14 292.93 375.97C292.71 377.5 292.47 379.08 291.66 380.35C291.33 380.89 290.91 381.47 290.68 382.03C290.15 383.26 291.73 383.44 292.59 383.6C293.8 383.79 294.87 384.44 296.06 384.8C297.47 385.24 298.95 385.56 300.17 386.44C301.97 387.69 303.46 389.52 303.82 391.64C303.96 392.4 303.95 393.14 303.8 393.85C303.5 395.04 303.12 396.37 304.52 396.93C308.37 398.23 312.29 395.34 315.95 394.93C317.94 394.7 319.95 395.69 321.84 395.73C322.93 395.77 324.02 395.49 325.11 395.54C326.43 395.6 327.47 396.08 328.59 395.94C329.73 395.8 330.88 395.49 332.04 395.64C333.14 395.75 334.24 395.98 335.35 395.85C336.96 395.69 338.27 395.05 339.95 395.2C343.63 395.57 346.94 398.38 350.76 397.55C352.77 397.25 353.03 396.39 352.41 394.56C352.08 393.39 352.25 392.15 352.64 391.02C353.66 387.85 356.9 385.98 360.01 385.31C361.23 385.01 362.4 384.36 363.68 384.23C366.99 384.1 366.19 383.03 364.73 380.83C364.12 379.84 363.88 378.6 363.65 377.5C363.15 375.82 362.97 373.92 362.92 372.11C362.87 370.79 361.92 369.89 361.05 369.01C360.03 367.94 359.79 366.46 359.37 365.15C358.88 363.7 358.67 362.15 358.97 360.63C359.15 358.57 361.18 356.97 360.04 355C358.6 352.34 355.97 350.56 354.8 347.76C353.58 345.92 354.16 343.34 354.68 341.44C354.97 339.95 356.29 338.9 356.59 337.37C356.76 336.53 356.48 335.59 356.55 334.77C356.72 332.87 356.52 330.94 356.74 329.13C357.02 327.45 357.09 325.73 358.02 324.27C358.67 322.98 359.36 321.63 360.69 320.91C362.76 319.81 364.89 318.74 367.08 317.98C368.32 317.4 369.95 316.91 371.34 316.93C372.96 316.97 373.91 317.82 375.49 318.22C376.84 318.53 378.23 318.85 379.34 319.71C381.07 320.83 382.62 322.09 383.45 324.01C384.1 325.07 384.92 326 385.12 327.14C385.32 328.18 385.32 329.32 385.23 330.25C385.05 332.28 384.76 334.43 383.95 336.3C383.25 337.7 381.91 339.4 381.71 341.17C381.47 342.64 382.23 344.01 382.14 345.48C382.08 346.45 381.7 347.5 381.65 348.36C381.53 349.62 381.78 350.82 381.96 352.06C382.22 353.54 383.05 354.55 383.56 356.17C383.88 357.69 384.44 359.13 385.01 360.56C385.42 362.02 384.57 363.75 384.09 365.13C383.53 366.32 382.52 367.41 382.26 368.76C382.21 369.18 382.3 369.7 382.44 370.05C382.67 370.8 383.13 371.53 383.29 372.28C383.43 373.02 383.34 373.84 383.26 374.6C383.13 376.16 382.15 377.79 382.15 379.45C382.15 380.9 383.12 381.96 383.19 383.52C383.29 384.92 382.97 386.46 381.97 387.47C380.69 388.8 378.31 389.82 378.17 391.77C378.51 394.65 378.27 397.94 377.53 400.75C377.07 402.81 375.71 404.54 374.02 405.77C371.5 407.88 367.54 407.89 365.68 410.83C364.01 414.39 360.99 416.25 357.46 417.73C356.25 418.31 355.2 419.03 353.92 419.42C352.89 419.74 351.71 419.8 350.64 419.96C345.31 420.78 340.3 423.86 334.89 423.35C334.16 423.41 333.56 423.82 333.2 424.44C331.16 428.36 331.09 428.69 326.36 428.73C323.64 428.84 323.12 424.21 321.26 423.42C319.97 422.95 318.59 423.43 317.11 423.1C313.46 422.33 310 420.75 306.45 419.84C305.25 419.56 303.98 419.48 302.75 419.35C300.91 419.13 299.85 418.27 298.13 417.51C296.65 416.89 295.17 416.03 293.99 414.97C292.07 413.43 290.89 410.55 288.81 408.92C288.08 408.35 287.25 408.01 286.4 407.68C284.41 406.92 282.38 405.81 280.77 404.32C278.81 402.56 278.29 399.87 277.93 397.37C277.6 395.46 277.44 393.45 277.89 391.58C278.52 388.01 272.24 387.76 272.36 383.53C272.33 382.71 272.44 381.84 272.74 381.07C273.19 379.92 274.06 378.98 273.93 377.84C273.78 376.55 272.93 375.22 272.79 373.94C272.67 372.93 272.69 371.86 272.98 371.05C273.36 370.15 273.9 369.45 274.07 368.46C274.26 366.93 273.04 365.7 272.5 364.4C272.44 364.27 272.34 364.02 272.34 364L272.28 363.83C271.91 362.54 271.08 361.07 271.49 359.73C271.52 359.61 271.62 359.39 271.62 359.38L271.68 359.24C272.3 358.22 272.54 357.06 272.79 355.89C273.17 354.2 274.06 353.02 274.55 351.68C274.81 350.61 275.08 349.51 275.13 348.41C275.28 347.22 274.76 345.84 274.51 344.6C274.35 343.18 275.42 341.56 275.06 339.95C274.74 337.91 273.17 336.18 272.43 334.37C271.89 332.07 271.57 329.52 271.85 327.15C272.04 325.37 273.05 323.93 273.96 322.43C274.36 321.76 274.81 321.1 275.4 320.59C277.09 319.23 278.97 317.94 281.17 317.4C282.84 316.97 283.89 316.34 285.5 316.24C288.52 316.16 291.34 317.68 293.87 318.96L293.94 319L293.98 318.98Z" fill="white"/>
<path d="M459.82 316.82C460.45 317.09 461.18 317.16 462.04 317.45C462.96 317.79 463.83 318.3 464.8 318.48C466.24 318.71 467.5 319.18 468.51 320.26C471.47 322.92 472.91 325.67 472.32 329.54C472.2 331.13 471.28 332.37 471.09 333.96C470.78 336.73 473.73 337.77 474.98 339.81C476.21 341.58 476.88 343.54 478.38 345.02C479.52 346.22 481.09 347.19 481.89 348.66C483.79 352.32 481.42 357.97 484.94 360.76C485.94 361.44 487.21 361.64 488.18 362.38C489.27 363.15 489.95 364.54 490.57 365.77C491.67 367.77 493.15 370.28 495.02 371.76C495.91 372.25 496.84 371.66 497.74 371.36C498.62 371.03 499.57 371.13 500.49 371.21C501.66 371.33 503.06 371.08 504.27 371.53C505.88 372.13 506.79 372.87 508.1 371.18C509.75 369.3 511.31 367.27 512.42 365.26C513.03 364.26 513.61 363.4 514.66 362.9C515.58 362.43 516.67 362.26 517.56 361.72C520.3 359.91 519.8 354.85 520.59 351.91C520.83 350.51 521.42 349.18 522.54 348.24C523.52 347.36 524.67 346.77 525.52 345.78C526.94 344.1 527.85 341.12 529.82 339.73C530.52 339.23 531.19 338.84 531.79 338.21C535.78 333.44 526.84 331.06 535.64 322.21C536.83 320.9 538.32 320.41 540.01 320.27C540.75 320.1 541.19 319.98 541.87 319.72C542.6 319.45 543.29 319.28 543.98 319.07C545.49 318.48 546.76 318.1 548.28 318.68C550.61 319.34 553.46 318.92 555.13 320.96C556.77 323.23 559.15 325.69 559.11 328.73C559.12 329.95 558.63 331.27 558.47 332.64C558.37 333.47 558.29 334.3 558.01 335.1C557.29 337.26 555.87 339.32 555.25 341.3C554.58 343.35 554.35 346.05 553.61 347.98C553.13 349.26 552.05 350.14 551.26 351.52C550.64 352.69 550.17 353.93 549.26 354.91C548 356.79 546.12 358.15 544.91 360.06C543.64 361.9 542.92 363.79 542.12 365.63C541.09 368.26 538.22 370.08 536.69 372.26C534.21 375.78 531.91 379.46 530.37 383.48C529.58 385.38 528.55 387.62 528.17 389.71C527.79 391.46 526.36 392.71 525.45 394.22C524.26 396.13 523.25 398 521.87 399.63C521.06 400.62 520.15 401.66 519.41 402.72C518.31 404.26 517.86 405.79 516.99 407.28C516.08 408.87 514.65 410.05 513.18 411.12C511.65 412.36 509.84 412.49 508.26 413.73C506.9 414.73 506.18 416.37 506.35 418.01C506.25 420.43 505.06 423.41 504.21 425.6C503.56 427.33 502.02 428.58 500.13 428.66C496.4 429.17 494.76 425.31 494.15 422.24C493.74 420.31 493.34 418.61 493.51 416.91C493.63 415.64 492.99 414.38 492.03 413.59C491.27 412.9 490.3 412.53 489.38 412.16C487.02 411.16 485.52 409.29 483.88 407.46C482.79 405.89 482.64 403.81 481.36 402.29C478.29 398.37 475.48 394.28 473.44 389.76C472.73 388.25 472.74 386.38 472.16 384.81C471.35 383.01 470.66 381.18 470.1 379.29C469.57 377.82 468.56 376.41 467.87 375.19C466.78 373.3 465.87 371.29 464.57 369.51C462.65 367.32 460.82 365.57 459.91 362.75C459.19 360.79 458.3 358.75 457.17 356.98C456.82 356.47 456.44 356.1 456.02 355.71C454.94 354.74 454.23 353.46 453.37 352.12C452.88 351.39 452.53 350.59 452.2 349.77C451.52 348.13 450.2 346.97 449.6 345.39C448.8 343.05 448.7 340.12 447.85 337.71C447.27 335.94 446.34 334.04 445.88 332.13C445.59 330.86 445.63 329.63 445.37 328.44C444.83 326.52 444.86 324.87 445.96 322.98C446.53 321.87 447.09 321.03 447.78 320.29C448.51 319.52 449.1 318.57 449.97 317.93C451.1 317.07 452.61 317.07 454.02 316.83C455.45 316.69 456.94 315.99 458.37 316.26C458.89 316.39 459.23 316.59 459.72 316.79L459.79 316.82H459.82Z" fill="white"/>
<path d="M609.99 316.45C612.49 316.36 614.65 317.84 616.54 319.27C619.61 320.85 620.7 324.32 621.61 327.42C622.01 328.76 623.05 329.76 623.79 330.92C624.49 332.05 624.84 333.38 625.35 334.56C626.76 336.78 627.43 339.33 628.91 341.56C629.64 342.78 629.79 344.04 630.83 345.03C632.71 346.71 635.05 348.09 636.81 349.83C638.74 351.67 641.05 353.75 642.31 356.12C643.48 357.93 645.71 357.27 647.53 357.27C648.93 357.34 650.53 357.86 651.77 356.97C652.62 356.3 653.13 355.29 653.86 354.5C656.38 352.03 659.02 349.31 661.92 347.2C662.9 346.47 664.03 345.84 664.68 345.05C665.43 344.19 665.66 343.17 666.27 342.08C666.72 341.23 667.37 340.48 667.74 339.59C668.39 337.88 669.47 336.64 670.26 335.03C670.77 333.74 671.2 332.25 672.13 331.13C673.3 329.91 674.02 328.39 674.37 326.76C675.15 324.87 675.96 322.84 677.49 321.41C679.17 320.1 680.94 318.82 682.93 318.04C685.45 317.31 688.17 318.03 690.77 317.7C693.38 317.2 695.4 318.6 697.2 320.3C699.42 322.29 701.78 324.71 701.55 327.87C701.31 332.53 701.75 332.63 698.41 336.12C697.37 337.66 695.96 338.71 694.41 339.73C692.29 341.57 690.27 342.43 687.72 343.48C685.96 344.23 685.93 345.98 685.28 347.63C684.94 348.43 684.47 349.27 684.05 350.05C681.55 354.19 679.74 358.04 676.7 361.61C675.62 363.7 674.04 365.83 672.28 367.27C670.69 368.74 669.1 370.22 667.23 371.3C665.45 372.31 665.51 374.32 665.03 376.18C664.64 377.62 664.96 379.33 666.14 380.3C667.37 381.39 669.31 381.59 670.71 382.63C672.01 383.6 672.87 384.79 674.26 385.6C675.71 386.51 677.26 388.24 678.77 389.08C679.45 389.49 680.13 389.86 680.71 390.41C681.95 391.6 682.7 393.52 683.93 394.61C685.62 396.24 686.61 398.01 688.52 399.67C689.2 400.42 689.63 401.33 690.08 402.21C690.78 403.57 691.87 404.54 692.58 406C693.27 407.46 693.67 409.06 694.46 410.47C696.07 413.28 699.02 415.62 698.48 419.17C698.24 421.03 697.97 423.24 696.81 424.68C695.29 426.13 693.61 427.43 691.52 428.21C690.36 428.57 689.15 428.69 687.94 428.66C685.55 428.57 683.09 428.03 681.37 426.39C680.23 425.05 678.67 424.32 677.21 423.44C675.14 421.9 672.64 420.78 670.63 419.08C669.27 418.09 667.59 417.41 666.47 416.11C664.8 414.35 664.23 411.99 662.52 410.27C661.33 409.2 660.42 407.85 660.2 406.32C660 405.32 659.74 404.28 659.86 403.31C660.05 401.97 660.51 400.69 659.68 399.44C658.46 397.43 657.07 395.51 655.13 394.17C654.21 393.53 653.31 392.32 652.12 392.36C649.95 393.18 649.86 396.91 646.2 396.1C644.84 395.84 644.07 394.92 643.33 393.73C642.78 392.93 642.26 392.22 641.69 392.19C640.96 392.16 640.34 392.75 639.74 393.19C638.04 394.47 636.49 395.44 635.22 397.29C634.39 398.36 633.19 399.58 633.34 401C633.81 403.88 633.55 407.18 631.31 409.37C629.11 411.02 628.6 413.85 626.7 415.75C625.94 416.52 624.88 416.92 623.92 417.42C622.43 418.15 621.38 419.28 620.08 420.14C619.43 420.58 618.7 420.92 618 421.27C616.83 421.84 616.02 422.62 615.06 423.07C614.34 423.43 613.61 423.72 612.92 424.14C611.69 424.93 610.7 426.16 609.26 426.68C605.67 428.18 600.69 427.85 597.88 425.09C596.46 423.97 595.18 422.72 594.95 420.88C593.34 414.6 595.31 413.84 598.72 409.2C599.79 407.56 600.29 405.32 601.35 403.77C602.47 402.39 603.53 401.01 604.36 399.43C605.13 398.2 606.33 397.41 607.06 396.45C608.13 394.83 609.54 393.94 610.88 392.41C611.92 391.19 612.59 389.62 614.03 388.8C616.03 387.87 617.64 386.27 619.46 384.98C621.27 384.01 622.16 382.7 624.11 381.55C625.41 380.83 626.98 380.72 628.1 379.68C629.51 378.48 629.65 376.55 629.11 374.91C628.81 373.72 628.71 372.48 628.16 371.69C627.37 370.53 625.61 369.97 624.55 368.8C622.23 366.56 619.73 364.28 618.35 361.29C617.85 360.25 617.01 359.5 616.35 358.58C615.72 357.75 615.36 356.66 614.69 355.58C614.01 354.49 613.47 353.33 612.89 352.19C612.03 350.58 610.72 348.65 609.98 346.86C609.49 345.64 609.43 344.49 608.95 343.61C607.99 341.91 605.66 341.64 604.09 340.75C602.18 339.83 600.08 337.78 598.33 336.38C597.79 335.86 597.37 335.29 596.94 334.68C596.19 333.58 594.9 332.48 594.4 331.21C593.8 329.32 594.09 327.42 594.07 325.36C594.27 322.87 596.1 321.04 597.96 319.5C604.1 314.55 603.18 316.81 609.92 316.46H610.01L609.99 316.45Z" fill="white"/>
<path d="M798.12 327.76C796.35 330.29 796.12 333.53 795.05 336.38C793.93 338.73 792.02 340.25 790.9 342.44C789.91 344.27 789.47 346.37 788.44 348.18C787.91 349.11 787.17 349.9 786.5 350.73C784.54 353.45 783.51 356.07 781.37 358.89C780.34 360.42 779.21 362.1 778.3 363.66C777.61 364.8 777.53 365.61 777.12 366.63C776.66 367.89 775.85 369.06 775.58 370.39C774.54 379.82 775.73 389.34 776.06 398.83C776.13 401.49 776.7 404.11 776.81 406.76C776.92 409.41 776.55 412.1 776.85 414.71C777.15 417.54 778.06 420.98 777.92 423.89C777.77 427.64 775.72 429.94 771.87 428C770.58 427.37 769.74 426.18 768.63 427.86C767.51 429.51 765.6 428.28 765.07 426.66C764.04 423.76 764.65 419.8 764.91 416.74C765.46 412.74 764.34 408.71 764.7 404.68C765.5 398.13 764.83 391.61 764.98 385.07C765.26 380.62 764.42 376.12 764.19 371.75C762.73 366.6 759.37 362.16 756.17 357.92C754.78 356.38 753.56 354.75 752.68 352.86C751.72 351.11 750.12 349.79 749.13 348.06C747.99 346.19 747.16 344.13 745.92 342.32C744.92 340.79 743.19 339.46 742.45 337.99C741.46 336.04 741.08 333.17 739.99 330.97C738.59 328.69 736.68 326.63 736.17 323.95C735.72 322.09 735.56 319.94 737.41 319.05C738.93 318.42 740.46 317.84 742.05 317.6C744.63 317.51 747.52 319.24 749.4 321.09C750.96 322.76 752.07 324.94 753.62 326.65C755.48 328.7 758.32 331.37 760.24 332.87C761.82 333.99 763.88 334.51 764.66 336.5C765.91 339.1 765.92 342.32 765.52 345.23C765.49 345.71 765.08 347.18 765.98 346.7C767.54 345.81 769.94 345.73 771.67 346.38C771.99 346.46 772.39 346.73 772.63 346.57C772.86 345.94 772.46 345.04 772.38 344.34C772.02 341.14 771.77 336.52 774.41 334.27C775.94 333.28 777.58 331.99 778.92 330.69C782.59 328.04 784.26 323.56 787.13 320.21C788.69 318.39 790.94 317.34 793.06 316.42C794.37 315.92 795.68 316.48 796.99 316.81C798.71 317.18 800.66 317.86 800.93 319.87C801.23 321.48 800.35 323.12 799.74 324.59C799.32 325.67 798.83 326.74 798.2 327.7L798.15 327.78L798.12 327.76Z" fill="white"/>
<path d="M877.95 321.5C881.8 323.88 885.24 327.54 885.78 332.33C886.33 335.42 884.2 338.41 882.53 340.88C881.06 343.15 880.35 346.38 877.94 348.03C876.19 349.3 873.03 350.52 874.08 353.21C874.69 355.01 874.67 356.81 875.47 358.7C876.04 360.1 877.16 361.22 877.61 362.67C878.36 365.32 878.1 369.74 878.66 373.1C879.03 375.99 881.05 378.52 880.48 381.5C880.04 383.75 878.25 386.08 876.17 386.93C875.55 387.18 874.86 387.37 874.31 387.74C872.15 389.22 872.41 392.25 871.99 394.58C871.65 397.33 873.8 397.74 875.75 398.67C876.52 399.09 877.47 399.68 878.26 399.12C879.15 398.44 879.44 397.27 879.95 396.29C881.52 392.99 883.42 389.78 886.1 387.42C887.47 386.03 888.56 384.25 890.26 383.22C891.37 382.51 892.55 381.89 893.4 380.85C894.39 379.67 895.29 378.38 896.62 377.55C897.7 376.85 899.02 376.19 899.61 375.27C901.11 372.39 900.36 366.77 905 367.13C906.28 367.13 907.63 367.18 908.44 368.12C911.44 372.18 908.85 375.11 914.25 377.73C915.75 378.7 916.54 380.35 918 381.6C918.83 382.32 919.83 382.78 920.74 383.38C922.02 384.17 922.79 385.5 923.85 386.64C924.63 387.49 925.58 388.18 926.36 389.03C928.14 391.13 929.16 393.91 930.63 396.27C931.25 397.3 931.59 398.97 932.83 399.24C933.92 399.41 935.66 398.24 936.92 397.74C939.89 396.58 938.21 391.74 937.62 389.36C936.26 386.24 932.22 387.5 930.55 382.75C928.8 378.97 931.72 375.86 932.09 372.12C932.97 367.71 931.68 363.04 934.75 359.32C936.03 357.34 936.08 354.92 936.6 352.63C936.73 349.32 932.07 348.65 930.69 346.3C929.3 343.85 928.42 341.15 926.59 338.96C921.32 331.31 928.21 322.8 935.36 319.63C938.74 318.07 941.92 315.29 945.85 316.44C948.86 317.52 951.83 318.97 954.59 320.57C956.84 322.51 959.43 324.92 960.25 327.88C960.66 329.79 960.54 331.87 960.89 333.79C961.46 336.42 961.22 338.8 960.77 341.47C960.66 343 961.16 344.52 960.77 345.87C959.88 348.76 957.32 351.26 957.29 354.4C957.57 357.54 957.74 361.05 957.95 364.12C958.06 366.23 959.07 368.23 959.39 370.34C959.72 372.79 959.37 375.14 959.52 377.6C959.77 379.71 960.32 381.93 958.77 383.73C956.92 385.72 957.06 387.74 957.14 390.39C957.02 393 956.59 395.63 956.97 398.24C957.51 402.48 959.41 407 958.84 411.4C958.11 415.37 957.3 420.95 953.71 422.96C951.67 424.06 949.21 425.75 946.85 426.1C945.38 426.25 943.79 426.03 942.33 426.43C941.04 426.74 939.84 427.44 938.58 427.89C934.04 429.54 928.76 427.89 925.43 424.54C923.38 422.38 920.51 420.1 920.78 416.87C920.93 415.14 921.67 413.9 921.71 412.24C921.76 410.93 921.87 409.43 920.84 408.4C919.2 406.67 916.09 405.63 913.91 404.27C912.02 402.97 911.26 404.02 910.61 405.87C910.06 407.23 909.63 408.74 908.66 409.87C907.29 411.29 904.63 411.06 902.88 410.54C900.5 409.65 900.53 404.38 898.43 403.73C897.18 403.87 895.26 405.39 893.76 405.83C890.34 407.03 888.26 409.54 889.06 413.24C889.47 415.46 890.58 417.79 889.19 419.89C886.54 423.82 883.02 427.34 878.35 428.34C875.66 428.95 872.81 428.8 870.27 427.57C869.3 427.13 868.34 426.6 867.3 426.36C865.69 425.97 863.96 426.32 862.36 425.89C860.45 425.37 858.36 424.09 856.72 423.11C853.59 420.98 852.63 417.12 851.93 413.55C851.23 410.83 851.63 408.21 852.12 405.5C852.17 402.9 853.28 400.54 853.56 397.96C854.08 395.02 853.46 392.68 853.31 389.89C853.24 388.66 853.54 387.43 853.31 386.48C852.84 384.65 850.56 383.23 850.44 381.13C850.35 379.95 850.74 378.76 850.88 377.58C851.25 374.94 850.66 372.68 851 370.11C851.19 368.12 852.28 366.28 852.61 364.33C852.83 362.52 852.43 360.49 852.69 358.59C853.7 353.14 853.28 352.9 850.49 348.38C849.19 346.06 849.41 343.69 849.48 341.2C849.38 339.03 848.59 337.06 849.12 334.92C849.68 332.94 849.47 330.59 849.87 328.56C851.39 321.36 860.13 316.97 866.98 316.19C868.81 316.13 870.35 317.22 871.92 318.02C873.99 319.07 875.92 320.11 877.86 321.4L877.95 321.46V321.5Z" fill="white"/>
<path d="M1085.09 358.31C1083.37 359.93 1080.96 360.11 1079.16 361.78C1077.55 363.28 1076.39 365.08 1075.01 366.7C1073.5 368.25 1072.04 369.74 1071.23 371.79C1070.36 373.64 1069.93 375.47 1068.95 377.25C1068.23 378.7 1067 379.67 1066.33 381.1C1065.47 382.89 1065.03 384.92 1063.93 386.61C1063.33 387.47 1062.55 388.17 1061.89 388.99C1060.53 390.63 1059.33 392.51 1057.73 393.8C1055.82 395.16 1054.59 397.32 1054.28 399.73C1054.26 400.45 1054.9 400.41 1055.42 400.29C1056.99 399.84 1058.51 399.84 1060.24 399.56C1063.12 399.04 1066.24 397.75 1069.05 399.22C1074.49 401.41 1080.44 401.55 1086.27 401.07C1088.91 400.83 1091.4 399.99 1094.07 400.11C1095.58 400.18 1097.04 400.6 1098.42 400.71C1100.8 400.87 1103.29 400.42 1105.63 401.06C1109.33 402.13 1113.02 405.09 1114.67 408.49C1117.35 414.46 1110.14 418.41 1105.2 420.15C1103.5 420.74 1101.86 421.35 1100.4 422.4C1096.96 424.74 1093.49 426.57 1089.29 427.06C1088.07 427.26 1086.95 427.28 1085.8 426.86C1084.34 426.3 1082.57 425.64 1081.27 424.74C1080.18 423.96 1079.2 422.87 1077.92 422.37C1076.3 421.69 1074.78 422.81 1073.23 423.26C1068.74 424.67 1064.47 425.43 1060.1 424.25C1058.35 423.69 1056.51 423.28 1054.75 424.02C1052.27 424.93 1049.77 425.98 1047.26 426.75C1044.1 427.67 1040.95 428.35 1037.66 428.56C1035.38 428.61 1033 428.95 1030.93 428.28C1027.47 426.84 1020.89 422.13 1019.27 417.61C1018.28 413.94 1019.95 409.48 1022.83 407C1024.23 405.85 1025.72 405.8 1027.29 405.32C1029.6 404.78 1031.46 402.57 1032.89 400.66C1034.48 398.51 1034.65 396.08 1035.96 393.89C1037.15 391.83 1039.56 390.47 1041.32 388.85C1042.66 387.68 1043.75 386.26 1044.86 384.89C1054.86 373.67 1062.35 360.53 1071.05 348.33C1073.18 344.54 1074.76 338.75 1068.31 339.27C1066.3 339.36 1064.26 340.34 1062.44 340.34C1060.75 340.29 1059.06 340.28 1057.37 340.53C1053.45 340.96 1049.8 341.01 1045.94 341.01C1044.81 340.95 1043.78 340.37 1042.72 340.57C1041.69 340.84 1041.23 341.78 1040.3 342.46C1038.26 343.75 1036.28 344.98 1034.14 346.17C1031.38 347.69 1028.41 347.05 1025.48 346.41C1024.32 346.2 1023.08 346.3 1021.98 345.98C1021.06 345.74 1020.26 345.17 1019.35 344.91C1018.53 344.67 1017.46 344.94 1016.37 344.72C1014.92 344.47 1013.8 343.44 1012.53 342.81C1010.65 341.97 1008.46 340.75 1007.24 339.21C1006.52 338.37 1006.05 337.42 1005.55 336.42C1005.04 335.39 1004.38 334.42 1004.32 333.28C1004.24 332.26 1004.77 331.23 1005.1 330.03C1005.34 329.17 1005.55 328.28 1005.91 327.46C1007.79 323.27 1012.21 321.31 1016.49 320.43C1019.07 319.66 1021.97 320.25 1024.55 319.83C1026.97 319.4 1029.33 318.4 1031.81 318.13C1040.15 316.88 1047.7 317.95 1056.07 318.46C1058.89 318.72 1061.72 318.27 1064.55 318.49C1066.39 318.68 1067.71 319.52 1069.38 319.48C1078.64 318.65 1087.6 315.38 1096.99 316.39C1106.66 317.66 1111.23 328.9 1106.65 337.15C1105.3 339.33 1103.78 341.79 1101.55 343.11C1100.66 343.6 1099.57 344.16 1098.81 344.99C1098.21 345.62 1097.74 346.36 1097.16 347C1096.57 347.67 1095.89 348.24 1095.35 348.95C1094.59 349.89 1094.25 351.18 1093.44 352.22C1091.3 354.91 1087.72 356.25 1085.18 358.23L1085.1 358.29L1085.09 358.31Z" fill="white"/>
</g>
<defs>
<clipPath id="clip0_74_228">
<rect width="1118.21" height="428.72" fill="white"/>
</clipPath>
</defs>
</svg>
